<svg width="1280" height="720" xmlns="http://www.w3.org/2000/svg" xmlns:xlink="http://www.w3.org/1999/xlink" overflow="hidden"><defs><clipPath id="clip0"><path d="M0 0 1280 0 1280 720 0 720Z" fill-rule="evenodd" clip-rule="evenodd"/></clipPath></defs><g clip-path="url(#clip0)"><rect x="0" y="0" width="1280" height="720" fill="#FFFFFF"/><path d="M695.519 147 707.099 147.439 718.695 148.692 730.228 150.698 741.698 153.518 753.039 157.09 764.317 161.35 775.405 166.362 786.365 171.999 797.137 178.262 807.72 185.15 818.052 192.601 828.133 200.616 837.962 209.193 847.477 218.27 856.679 227.785 865.568 237.801 874.081 248.191 882.219 259.021 889.918 270.225 897.179 281.742 904.001 293.634 910.385 305.777 916.207 318.171 921.59 330.815 926.347 343.711 930.604 356.731 934.235 369.941 937.24 383.339 939.619 396.737 941.373 410.323 942.437 423.911 942.628 430.822 941.628 430.85 941.438 423.951 941.439 423.977 940.377 410.414 940.379 410.439 938.629 396.877 938.633 396.9 936.258 383.525 936.262 383.547 933.262 370.172 933.268 370.195 929.643 357.008 929.65 357.03 925.4 344.03 925.406 344.048 920.656 331.173 920.665 331.196 915.29 318.571 915.297 318.588 909.485 306.213 909.495 306.233 903.12 294.108 903.129 294.124 896.316 282.249 896.327 282.267 889.077 270.767 889.088 270.783 881.4 259.596 881.413 259.613 873.288 248.8 873.301 248.817 864.801 238.442 864.814 238.457 855.939 228.457 855.953 228.473 846.766 218.973 846.78 218.987 837.28 209.924 837.296 209.939 827.484 201.377 827.501 201.391 817.439 193.391 817.458 193.406 807.145 185.968 807.165 185.982 796.602 179.107 796.624 179.12 785.874 172.87 785.896 172.882 774.959 167.257 774.982 167.268 763.919 162.268 763.948 162.28 752.698 158.03 752.725 158.039 741.412 154.477 741.443 154.486 730.006 151.673 730.039 151.68 718.539 149.68 718.571 149.685 707.009 148.435 707.044 148.437 695.481 148ZM946.09 429.393 942.313 437.5 938.093 429.614Z" fill="#4472C4"/><path d="M444.5 399.5C444.5 386.798 465.99 376.5 492.5 376.5 519.01 376.5 540.5 386.798 540.5 399.5 540.5 412.203 519.01 422.5 492.5 422.5 465.99 422.5 444.5 412.203 444.5 399.5Z" stroke="#ED7D31" stroke-miterlimit="8" fill="#FBE5D6" fill-rule="evenodd"/><text font-family="Calibri,Calibri_MSFontService,sans-serif" font-weight="700" font-size="15" transform="translate(469.911 396)">Patient<tspan font-style="italic" font-weight="400" font-size="13" x="0.166656" y="16">(</tspan><tspan font-style="italic" font-weight="400" font-size="12" x="4.16666" y="16">insured</tspan><tspan font-style="italic" font-weight="400" font-size="13" x="40" y="16">)</tspan></text><path d="M752.5 395C752.5 382.574 774.214 372.5 801 372.5 827.786 372.5 849.5 382.574 849.5 395 849.5 407.426 827.786 417.5 801 417.5 774.214 417.5 752.5 407.426 752.5 395Z" stroke="#FFC000" stroke-miterlimit="8" fill="#FFF2CC" fill-rule="evenodd"/><text font-family="Calibri,Calibri_MSFontService,sans-serif" font-weight="700" font-size="15" transform="translate(779.732 392)">Doctor<tspan font-style="italic" font-weight="400" font-size="12" x="-3.33331" y="15">(provider)</tspan></text><path d="M574.5 264.5C574.5 254.007 595.99 245.5 622.5 245.5 649.01 245.5 670.5 254.007 670.5 264.5 670.5 274.993 649.01 283.5 622.5 283.5 595.99 283.5 574.5 274.993 574.5 264.5Z" stroke="#548235" stroke-miterlimit="8" fill="#E2F0D9" fill-rule="evenodd"/><text font-family="Calibri,Calibri_MSFontService,sans-serif" font-weight="700" font-size="15" transform="translate(607.466 269)">Drug</text><path d="M527.959 415.289 528.646 418.164 528.41 417.643 530.41 420.456 530.169 420.191 533.419 423.003 533.236 422.868 537.611 425.618 537.465 425.537 542.902 428.162 542.809 428.121 549.184 430.683 549.088 430.648 556.401 433.023 556.341 433.005 564.403 435.255 564.344 435.24 573.094 437.303 573.042 437.291 582.48 439.166 582.431 439.157 592.306 440.782 592.268 440.777 602.643 442.214 602.571 442.206 624.258 444.143 624.171 444.138 646.546 444.826 646.475 444.825 657.725 444.638 657.666 444.64 668.791 444.015 668.72 444.021 690.345 441.771 690.268 441.781 700.643 440.156 700.588 440.165 710.525 438.228 710.472 438.239 719.847 436.052 719.795 436.065 728.545 433.69 728.473 433.711 736.536 431.086 736.462 431.113 743.774 428.3 743.674 428.343 750.049 425.343 749.951 425.393 755.389 422.331 755.242 422.425 759.617 419.238 759.32 419.524 761.904 416.232 764.264 418.085 761.551 421.54 756.937 424.901 751.376 428.034 744.902 431.08 737.502 433.927 729.366 436.575 720.555 438.967 711.127 441.167 701.135 443.115 690.694 444.75 668.995 447.008 657.805 447.637 646.489 447.825 624.035 447.135 602.268 445.191 591.838 443.746 581.919 442.114 572.432 440.229 563.626 438.153 555.504 435.886 548.113 433.486 541.644 430.885 536.085 428.202 531.542 425.347 528.07 422.341 525.796 419.145 525.041 415.986ZM758.388 416.488 766.438 410.45 766.438 420.512Z" fill="#ED7D31"/><path d="M525 383.056 525.251 371.893 526.069 360.824 527.327 349.881 529.088 339.252 531.227 328.935 533.807 319.052 536.704 309.733 539.918 300.972 543.394 292.883 547.194 285.6 551.138 279.176 555.363 273.67 559.701 269.203 564.375 265.797 566.237 265.201 567.152 268.058 565.52 268.581 565.946 268.365 561.571 271.552 561.764 271.385 557.576 275.697 557.69 275.565 553.565 280.94 553.654 280.812 549.779 287.124 549.83 287.034 546.08 294.221 546.128 294.119 542.691 302.119 542.721 302.044 539.533 310.731 539.558 310.66 536.683 319.91 536.701 319.844 534.139 329.656 534.156 329.582 532.031 339.832 532.042 339.772 530.292 350.335 530.303 350.261 529.053 361.136 529.059 361.075 528.246 372.075 528.25 371.998 528 383.123ZM563.959 262.754 573.875 264.465 566.557 271.371Z" fill="#70AD47"/><path d="M0.0788382-1.49793 10.8364-0.931741 21.6053 0.651923 32.1774 3.31077 42.4822 6.85109 52.4718 11.2136 62.018 16.3977 71.0571 22.2762 79.4657 28.7882 87.2426 35.8696 94.2722 43.4058 100.421 51.4563 105.687 59.8317 109.949 68.5457 113.076 77.4803 115.131 87.9163 112.188 88.4959 110.153 78.1648 110.209 78.3705 107.147 69.6205 107.215 69.784 103.028 61.2215 103.105 61.361 97.9177 53.111 97.9954 53.223 91.9329 45.2855 92.0281 45.3981 85.0906 37.9606 85.1776 38.0466 77.4901 31.0466 77.5816 31.1234 69.2691 24.6859 69.3697 24.7575 60.4322 18.945 60.5342 19.0057 51.0967 13.8807 51.2122 13.9371 41.3372 9.62463 41.4501 9.66861 31.2626 6.16861 31.3841 6.2047 20.9466 3.5797 21.0943 3.60904 10.4693 2.04654 10.6087 2.06043-0.0788382 1.49793ZM118.043 86.393 114.187 95.6875 109.065 87.0267Z" fill="#FFC000" transform="matrix(-4.37114e-08 -1 -1 4.37114e-08 766.151 378.661)"/><path d="M506.5 344.167C506.5 342.694 507.694 341.5 509.167 341.5L551.833 341.5C553.306 341.5 554.5 342.694 554.5 344.167L554.5 354.833C554.5 356.306 553.306 357.5 551.833 357.5L509.167 357.5C507.694 357.5 506.5 356.306 506.5 354.833Z" stroke="#70AD47" stroke-miterlimit="8" fill="#E2F0D9" fill-rule="evenodd"/><text fill="#7F7F7F" font-family="Calibri,Calibri_MSFontService,sans-serif" font-style="italic" font-weight="400" font-size="11" transform="translate(518.628 353)">takes</text><path d="M708.5 310.167C708.5 308.694 709.694 307.5 711.167 307.5L781.833 307.5C783.306 307.5 784.5 308.694 784.5 310.167L784.5 320.833C784.5 322.306 783.306 323.5 781.833 323.5L711.167 323.5C709.694 323.5 708.5 322.306 708.5 320.833Z" stroke="#FFC000" stroke-miterlimit="8" fill="#FFF2CC" fill-rule="evenodd"/><text fill="#7F7F7F" font-family="Calibri,Calibri_MSFontService,sans-serif" font-style="italic" font-weight="400" font-size="11" transform="translate(723.925 318)">prescribes</text><path d="M604.5 440.167C604.5 438.694 605.694 437.5 607.167 437.5L649.833 437.5C651.306 437.5 652.5 438.694 652.5 440.167L652.5 450.833C652.5 452.306 651.306 453.5 649.833 453.5L607.167 453.5C605.694 453.5 604.5 452.306 604.5 450.833Z" stroke="#ED7D31" stroke-miterlimit="8" fill="#FBE5D6" fill-rule="evenodd"/><text fill="#7F7F7F" font-family="Calibri,Calibri_MSFontService,sans-serif" font-style="italic" font-weight="400" font-size="11" transform="translate(617.006 449)">visits</text><path d="M581.5 148C581.5 135.574 607.02 125.5 638.5 125.5 669.98 125.5 695.5 135.574 695.5 148 695.5 160.426 669.98 170.5 638.5 170.5 607.02 170.5 581.5 160.426 581.5 148Z" stroke="#4472C4" stroke-miterlimit="8" fill="#DAE3F3" fill-rule="evenodd"/><text font-family="Calibri,Calibri_MSFontService,sans-serif" font-weight="700" font-size="15" transform="translate(609.173 145)">Medicare<tspan font-style="italic" font-weight="400" font-size="13" x="7.83331" y="18">(</tspan><tspan font-style="italic" font-weight="400" font-size="12" x="11.8333" y="18">insurer</tspan><tspan font-style="italic" font-weight="400" font-size="13" x="45.6667" y="18">)</tspan></text><path d="M492 376.158 492.5 354.709 494.002 333.436 496.442 312.539 499.696 292.08 503.763 272.308 508.518 253.411 513.963 235.513 519.97 218.742 523.165 210.85 526.484 203.334 529.991 196.195 533.5 189.428 537.198 183.097 540.959 177.204 544.786 171.747 548.679 166.787 552.64 162.322 556.73 158.421 560.822 155.021 564.927 152.179 569.104 149.964 573.365 148.311 575.198 147.991 575.37 148.976 573.586 149.287 573.681 149.261 569.493 150.886 569.547 150.862 565.422 153.049 565.472 153.018 561.41 155.831 561.445 155.804 557.382 159.179 557.408 159.157 553.345 163.032 553.374 163.002 549.437 167.439 549.456 167.416 545.581 172.354 545.597 172.332 541.784 177.769 541.797 177.751 538.047 183.626 538.057 183.61 534.369 189.922 534.381 189.9 530.881 196.65 530.886 196.64 527.386 203.765 527.395 203.747 524.082 211.247 524.089 211.232 520.901 219.107 520.908 219.088 514.908 235.838 514.916 235.815 509.478 253.69 509.485 253.667 504.735 272.542 504.74 272.521 500.677 292.271 500.681 292.248 497.431 312.686 497.434 312.665 494.997 333.54 494.999 333.518 493.499 354.768 493.5 354.744 493 376.181ZM573.365 144.729 581.875 147.482 574.566 152.638Z" fill="#ED7D31"/><path d="M479.5 291.167C479.5 289.694 480.694 288.5 482.167 288.5L514.833 288.5C516.306 288.5 517.5 289.694 517.5 291.167L517.5 301.833C517.5 303.306 516.306 304.5 514.833 304.5L482.167 304.5C480.694 304.5 479.5 303.306 479.5 301.833Z" stroke="#ED7D31" stroke-miterlimit="8" fill="#FBE5D6" fill-rule="evenodd"/><text fill="#7F7F7F" font-family="Calibri,Calibri_MSFontService,sans-serif" font-style="italic" font-weight="400" font-size="11" transform="translate(490.621 299)">has</text><path d="M638.873 170.513 638.685 177.587 638.183 184.425 637.368 190.825 636.363 196.54 635.165 201.46 633.77 205.2 633.055 206.63 632.316 207.705 631.43 208.517 630.557 208.735 629.807 208.923 630.024 208.806 629.274 209.494 629.348 209.408 628.66 210.408 628.687 210.364 627.937 211.739 627.969 211.668 626.657 215.355 626.672 215.306 625.484 220.181 625.49 220.154 624.427 225.842 624.432 225.808 623.682 232.183 623.685 232.158 623.211 239.37 622.213 239.304 622.688 232.079 623.441 225.675 624.509 219.957 625.706 215.044 627.04 211.295 627.822 209.863 628.556 208.795 629.441 207.983 630.315 207.765 631.065 207.577 630.848 207.694 631.598 207.006 631.524 207.092 632.211 206.092 632.176 206.151 632.864 204.776 632.842 204.825 634.217 201.138 634.2 201.194 635.388 196.319 635.381 196.351 636.381 190.663 636.377 190.687 637.19 184.312 637.187 184.338 637.687 177.526 637.686 177.549 637.873 170.487ZM626.752 238.132 622.498 246 618.756 237.876Z" fill="#4472C4"/><path d="M601.5 197.167C601.5 195.694 602.694 194.5 604.167 194.5L656.833 194.5C658.306 194.5 659.5 195.694 659.5 197.167L659.5 207.833C659.5 209.306 658.306 210.5 656.833 210.5L604.167 210.5C602.694 210.5 601.5 209.306 601.5 207.833Z" stroke="#4472C4" stroke-miterlimit="8" fill="#DAE3F3" fill-rule="evenodd"/><text fill="#7F7F7F" font-family="Calibri,Calibri_MSFontService,sans-serif" font-style="italic" font-weight="400" font-size="11" transform="translate(616.07 205)">covers</text><path d="M800.5 195C800.5 174.289 834.303 157.5 876 157.5 917.698 157.5 951.5 174.289 951.5 195 951.5 215.711 917.698 232.5 876 232.5 834.303 232.5 800.5 215.711 800.5 195Z" stroke="#548235" stroke-miterlimit="8" fill="#E2F0D9" fill-rule="evenodd"/><text font-family="Calibri,Calibri_MSFontService,sans-serif" font-weight="700" font-size="15" transform="translate(833.366 200)">Manufacturer</text><path d="M0.011571-0.499866 13.5233-0.187095 26.9208 0.75198 40.1303 2.25449 53.0275 4.32055 65.4855 6.88727 77.3828 9.83028 88.7194 13.2751 99.2434 17.0337 108.959 21.1078 117.741 25.499 125.466 30.1466 132.071 35.0534 137.373 40.0397 141.296 45.2277 142.784 47.9447 143.108 49.3289 142.134 49.5566 141.826 48.2389 141.874 48.3652 140.436 45.7402 140.476 45.8016 136.601 40.6766 136.657 40.7392 131.407 35.8017 131.452 35.8389 124.889 30.9639 124.93 30.9909 117.242 26.3659 117.276 26.3847 108.526 22.0097 108.557 22.0236 98.8691 17.9611 98.8943 17.9709 88.3943 14.2209 88.4171 14.2284 77.1046 10.7909 77.1299 10.7979 65.2549 7.86037 65.2741 7.86471 52.8366 5.30221 52.8584 5.30621 39.9834 3.24371 40.006 3.2468 26.8185 1.7468 26.84 1.74878 13.465 0.811276 13.4884 0.812366-0.011571 0.499866ZM146.217 47.2412 144.125 55.9375 138.423 49.0464Z" fill="#7F7F7F" transform="matrix(-1 -8.74228e-08 -8.74228e-08 1 800.594 195.5)"/><path d="M690.5 204.167C690.5 202.694 691.694 201.5 693.167 201.5L744.833 201.5C746.306 201.5 747.5 202.694 747.5 204.167L747.5 214.833C747.5 216.306 746.306 217.5 744.833 217.5L693.167 217.5C691.694 217.5 690.5 216.306 690.5 214.833Z" stroke="#70AD47" stroke-miterlimit="8" fill="#E2F0D9" fill-rule="evenodd"/><text fill="#7F7F7F" font-family="Calibri,Calibri_MSFontService,sans-serif" font-style="italic" font-weight="400" font-size="11" transform="translate(704.411 213)">makes</text><path d="M889.5 456.5C889.5 446.007 913.005 437.5 942 437.5 970.995 437.5 994.5 446.007 994.5 456.5 994.5 466.993 970.995 475.5 942 475.5 913.005 475.5 889.5 466.993 889.5 456.5Z" stroke="#FFC000" stroke-miterlimit="8" fill="#FFF2CC" fill-rule="evenodd"/><text font-family="Calibri,Calibri_MSFontService,sans-serif" font-weight="700" font-size="15" transform="translate(916.061 454)">Hospital<tspan font-style="italic" font-weight="400" font-size="12" x="1.24664" y="15">(provider)</tspan></text><path d="M849.59 394.008 853.422 394.711 857.107 396.779 860.556 399.909 863.671 403.914 866.206 408.668 868.23 413.98 869.496 419.614 869.936 425.463 870.374 431.275 870.363 431.203 871.613 436.765 871.592 436.697 873.592 441.947 873.566 441.89 876.066 446.577 876.02 446.506 879.082 450.443 878.993 450.354 883.385 453.736 882.775 454.529 878.332 451.107 875.204 447.086 872.669 442.333 870.645 437.02 869.379 431.387 868.939 425.538 868.501 419.725 868.512 419.797 867.262 414.235 867.283 414.303 865.283 409.053 865.309 409.11 862.809 404.423 862.855 404.495 859.793 400.557 859.852 400.62 856.477 397.558 856.568 397.624 853.005 395.624 853.16 395.679 849.41 394.992ZM883.255 449.92 889.313 456.5 880.414 457.398Z" fill="#FFC000"/><path d="M844.5 419.167C844.5 417.694 845.694 416.5 847.167 416.5L917.833 416.5C919.306 416.5 920.5 417.694 920.5 419.167L920.5 429.833C920.5 431.306 919.306 432.5 917.833 432.5L847.167 432.5C845.694 432.5 844.5 431.306 844.5 429.833Z" stroke="#FFC000" stroke-miterlimit="8" fill="#FFF2CC" fill-rule="evenodd"/><text fill="#7F7F7F" font-family="Calibri,Calibri_MSFontService,sans-serif" font-style="italic" font-weight="400" font-size="11" transform="translate(863.334 428)">works at</text><path d="M1023.5 488.5C1023.5 474.693 1042.08 463.5 1065 463.5 1087.92 463.5 1106.5 474.693 1106.5 488.5 1106.5 502.307 1087.92 513.5 1065 513.5 1042.08 513.5 1023.5 502.307 1023.5 488.5Z" stroke="#7F7F7F" stroke-miterlimit="8" fill="#D9D9D9" fill-rule="evenodd"/><text fill="#595959" font-family="Calibri,Calibri_MSFontService,sans-serif" font-weight="700" font-size="15" transform="translate(1048.73 493)">State</text><path d="M1106.5 552C1106.5 534.051 1138.29 519.5 1177.5 519.5 1216.71 519.5 1248.5 534.051 1248.5 552 1248.5 569.949 1216.71 584.5 1177.5 584.5 1138.29 584.5 1106.5 569.949 1106.5 552Z" stroke="#7F7F7F" stroke-miterlimit="8" fill="#D9D9D9" fill-rule="evenodd"/><text fill="#595959" font-family="Calibri,Calibri_MSFontService,sans-serif" font-weight="700" font-size="15" transform="translate(1138.17 557)">Contribution</text><path d="M0.0311891-0.499026 4.06645-0.246823 8.06515 0.578306 11.9942 1.84573 15.8563 3.61851 19.5223 5.76754 23.0671 8.29955 29.5601 14.3513 35.0483 21.6057 39.2713 29.6105 40.7896 33.8491 41.9896 38.207 42.6853 42.6343 42.9379 47.0553 42.6869 55.9041 41.9342 64.434 40.742 72.4031 39.1717 79.5635 37.3473 85.603 36.3108 88.1943 35.2684 89.4713 34.4937 88.839 35.4877 87.6213 35.4108 87.7518 36.4108 85.2518 36.3964 85.2929 38.2089 79.2929 38.1991 79.3304 39.7616 72.2054 39.7555 72.2385 40.943 64.301 40.9394 64.331 41.6894 55.831 41.6877 55.8608 41.9377 47.0483 41.9383 47.091 41.6883 42.716 41.6936 42.7651 41.0061 38.3901 41.0179 38.4452 39.8304 34.1327 39.8418 34.1686 38.3418 29.9811 38.3703 30.0458 34.1828 22.1083 34.2263 22.1767 28.7888 14.9892 28.8466 15.0533 22.4091 9.05326 22.4594 9.09437 18.9594 6.59437 18.9971 6.61885 15.3721 4.49385 15.4164 4.51691 11.6039 2.76691 11.659 2.78835 7.784 1.53835 7.83645 1.55218 3.89895 0.739683 3.96881 0.749026-0.0311891 0.499026ZM38.7517 90.8273 30.4375 94.125 32.7878 85.495Z" fill="#7F7F7F" transform="matrix(-4.37114e-08 1 1 4.37114e-08 941.5 475.5)"/><path d="M920 495.667C920 494.194 921.194 493 922.667 493L994.333 493C995.806 493 997 494.194 997 495.667L997 506.333C997 507.806 995.806 509 994.333 509L922.667 509C921.194 509 920 507.806 920 506.333Z" fill="#F2F2F2" fill-rule="evenodd"/><text fill="#7F7F7F" font-family="Calibri,Calibri_MSFontService,sans-serif" font-style="italic" font-weight="400" font-size="11" transform="translate(936.794 505)">located at</text><path d="M0.0980581-0.49029 3.61209 0.212517 7.10966 2.15561 10.313 5.16672 13.1771 9.04924 15.521 13.6736 17.4193 18.7357 18.5585 24.242 18.9985 29.8358 19.436 35.3983 19.4271 35.3362 20.5521 40.7737 20.5307 40.6994 22.4057 45.6994 22.381 45.6441 24.756 50.2066 24.718 50.145 27.468 53.9575 27.3678 53.854 31.1573 56.776 30.5467 57.5679 26.6996 54.6015 23.8857 50.7006 21.48 46.079 19.5807 41.0143 18.4415 35.508 18.0015 29.9142 17.564 24.3517 17.5729 24.4138 16.4479 18.9763 16.4693 19.0506 14.5943 14.0506 14.6165 14.101 12.304 9.53855 12.3476 9.60932 9.53514 5.79682 9.59505 5.86431 6.47005 2.92681 6.56968 2.99958 3.19468 1.12458 3.33944 1.17779-0.0980581 0.49029ZM31.1692 52.9675 37 59.75 28.0755 60.3451Z" fill="#70AD47" transform="matrix(-4.37114e-08 1 1 4.37114e-08 929.5 221.5)"/><path d="M1085.5 378.5C1085.5 360.827 1111.24 346.5 1143 346.5 1174.76 346.5 1200.5 360.827 1200.5 378.5 1200.5 396.173 1174.76 410.5 1143 410.5 1111.24 410.5 1085.5 396.173 1085.5 378.5Z" stroke="#7F7F7F" stroke-miterlimit="8" fill="#D9D9D9" fill-rule="evenodd"/><text fill="#595959" font-family="Calibri,Calibri_MSFontService,sans-serif" font-weight="700" font-size="15" transform="translate(1112.59 383)">Legislator</text><path d="M936.5 290C936.5 272.603 960.005 258.5 989 258.5 1017.99 258.5 1041.5 272.603 1041.5 290 1041.5 307.397 1017.99 321.5 989 321.5 960.005 321.5 936.5 307.397 936.5 290Z" stroke="#7F7F7F" stroke-miterlimit="8" fill="#D9D9D9" fill-rule="evenodd"/><text fill="#595959" font-family="Calibri,Calibri_MSFontService,sans-serif" font-weight="700" font-size="15" transform="translate(962.689 295)">Lobbyist</text><path d="M935.5 231.167C935.5 229.694 936.694 228.5 938.167 228.5L980.833 228.5C982.306 228.5 983.5 229.694 983.5 231.167L983.5 241.833C983.5 243.306 982.306 244.5 980.833 244.5L938.167 244.5C936.694 244.5 935.5 243.306 935.5 241.833Z" stroke="#70AD47" stroke-miterlimit="8" fill="#E2F0D9" fill-rule="evenodd"/><text fill="#7F7F7F" font-family="Calibri,Calibri_MSFontService,sans-serif" font-style="italic" font-weight="400" font-size="11" transform="translate(948.227 240)">hires</text><path d="M0.0104628-0.49989 26.8949 0.0628067 53.5389 1.62643 79.8076 4.19075 105.388 7.63067 130.157 11.8839 153.926 16.9505 176.382 22.6426 187.083 25.7717 197.344 29.0251 207.23 32.404 216.681 35.9088 225.633 39.5398 234.086 43.2967 242.04 47.1797 249.433 51.127 256.267 55.202 262.475 59.3409 268.064 63.4851 272.968 67.7606 277.248 72.1037 280.782 76.4584 283.565 80.8856 285.659 85.3904 286.868 89.8469 287.313 94.3584 286.749 111.967 285.247 129.054 284.182 137.199 282.867 145.027 281.426 152.418 279.797 159.311 278.041 165.707 276.158 171.42 274.146 176.514 272.064 180.804 269.874 184.345 268.589 185.293 267.995 184.488 269.203 183.598 269.075 183.737 271.2 180.3 271.175 180.344 273.238 176.094 273.222 176.129 275.222 171.066 275.213 171.093 277.088 165.406 277.08 165.43 278.83 159.055 278.826 159.072 280.451 152.197 280.447 152.217 281.884 144.842 281.882 144.855 283.194 137.042 283.192 137.06 284.254 128.935 284.252 128.956 285.752 111.894 285.75 111.921 286.313 94.359 286.315 94.4241 285.877 89.9866 285.892 90.0685 284.705 85.6935 284.734 85.7732 282.672 81.3357 282.702 81.3911 279.952 77.0161 279.987 77.0651 276.487 72.7526 276.519 72.7885 272.269 68.476 272.296 68.5019 267.421 64.2519 267.452 64.2766 261.89 60.1516 261.91 60.166 255.723 56.041 255.744 56.0544 248.931 51.9919 248.952 52.0036 241.577 48.0661 241.593 48.0743 233.656 44.1993 233.672 44.2069 225.234 40.4569 225.25 40.4633 216.312 36.8383 216.326 36.8438 206.889 33.3438 206.901 33.3481 197.026 29.9731 197.036 29.9766 186.786 26.7266 186.797 26.7299 176.11 23.6049 176.127 23.6097 153.69 17.9222 153.708 17.9265 129.958 12.864 129.978 12.8678 105.228 8.61779 105.246 8.62054 79.6834 5.18304 79.7014 5.18513 53.4514 2.62263 53.4707 2.62414 26.8457 1.06164 26.8645 1.06239-0.0104628 0.49989ZM271.666 187.419 262.813 188.687 267.11 180.843Z" fill="#7F7F7F" transform="matrix(-4.37114e-08 1 1 4.37114e-08 988.5 321.5)"/><path d="M1015 574.667C1015 573.194 1016.19 572 1017.67 572L1069.33 572C1070.81 572 1072 573.194 1072 574.667L1072 585.333C1072 586.806 1070.81 588 1069.33 588L1017.67 588C1016.19 588 1015 586.806 1015 585.333Z" fill="#F2F2F2" fill-rule="evenodd"/><text fill="#7F7F7F" font-family="Calibri,Calibri_MSFontService,sans-serif" font-style="italic" font-weight="400" font-size="11" transform="translate(1029.24 583)">makes</text><path d="M1248.39 551.623 1248.64 551.123 1248.59 551.26 1248.84 549.823 1248.84 549.856 1249.09 547.481 1249.08 547.504 1249.27 544.378 1249.52 540.44 1249.52 540.444 1249.77 535.819 1249.77 535.828 1249.96 530.578 1249.96 530.58 1250.15 524.705 1250.33 518.394 1250.33 518.4 1250.46 511.587 1250.58 504.462 1250.71 496.963 1250.71 496.965 1250.9 481.34 1250.9 481.344 1250.96 465.157 1250.96 465.178 1250.65 457.053 1250.65 457.084 1249.84 449.021 1249.84 449.057 1248.47 441.119 1248.47 441.151 1246.6 433.401 1246.61 433.432 1244.29 425.995 1244.3 426.025 1241.55 418.837 1241.57 418.865 1238.5 412.115 1238.52 412.146 1235.08 405.771 1235.1 405.805 1231.35 399.992 1231.37 400.024 1227.37 394.774 1227.4 394.807 1223.21 390.182 1223.25 390.218 1218.87 386.28 1218.93 386.321 1214.36 383.196 1214.42 383.23 1209.73 380.855 1209.84 380.894 1206.89 380.159 1207.14 379.189 1210.13 379.937 1214.9 382.353 1219.52 385.515 1223.94 389.492 1228.16 394.151 1232.18 399.434 1235.95 405.279 1239.41 411.686 1242.48 418.466 1245.24 425.682 1247.57 433.151 1249.45 440.932 1250.83 448.903 1251.64 456.999 1251.96 465.15 1251.9 481.35 1251.71 496.978 1251.58 504.48 1251.46 511.605 1251.33 518.421 1251.15 524.737 1250.96 530.613 1250.77 535.869 1250.52 540.501 1250.27 544.44 1250.27 544.439 1250.08 547.575 1249.83 549.978 1249.56 551.504 1249.28 552.07ZM1207.61 383.849 1200.46 378.471 1209.05 375.981Z" fill="#7F7F7F"/><path d="M1210 465.667C1210 464.194 1211.19 463 1212.67 463L1274.33 463C1275.81 463 1277 464.194 1277 465.667L1277 476.333C1277 477.806 1275.81 479 1274.33 479L1212.67 479C1211.19 479 1210 477.806 1210 476.333Z" fill="#F2F2F2" fill-rule="evenodd"/><text fill="#7F7F7F" font-family="Calibri,Calibri_MSFontService,sans-serif" font-style="italic" font-weight="400" font-size="11" transform="translate(1226.12 474)">receives</text><path d="M0.128831-0.483117 2.09885 0.0422205 4.04117 1.51571 5.91503 3.90649 7.75869 7.08521 9.46432 10.9387 11.0996 15.4671 12.6687 20.6139 14.1742 26.385 15.4908 32.5915 16.6814 39.2338 18.6847 53.5699 19.9369 68.8476 20.1904 78.0096 19.1908 78.0372 18.9377 68.8888 18.9392 68.9158 17.6892 53.6658 17.6923 53.6942 15.6923 39.3817 15.6953 39.4007 14.5078 32.7757 14.5109 32.7913 13.1984 26.6038 13.2037 26.6262 11.7037 20.8762 11.7092 20.8958 10.1467 15.7708 10.1547 15.7948 8.52972 11.2948 8.54278 11.3274 6.85529 7.51487 6.87998 7.56336 5.06748 4.43836 5.10647 4.49594 3.29397 2.18344 3.38531 2.27335 1.57281 0.898346 1.74617 0.983117-0.128831 0.483117ZM23.6522 76.5799 19.875 84.6875 15.6553 76.8012Z" fill="#7F7F7F" transform="matrix(-1 -8.74228e-08 -8.74228e-08 1 1085.36 378.5)"/><path d="M1031 418.667C1031 417.194 1032.19 416 1033.67 416L1104.33 416C1105.81 416 1107 417.194 1107 418.667L1107 429.333C1107 430.806 1105.81 432 1104.33 432L1033.67 432C1032.19 432 1031 430.806 1031 429.333Z" fill="#F2F2F2" fill-rule="evenodd"/><text fill="#7F7F7F" font-family="Calibri,Calibri_MSFontService,sans-serif" font-style="italic" font-weight="400" font-size="11" transform="translate(1046.21 428)">represents</text><path d="M951.507 195 965.14 195.188 978.781 195.813 992.296 196.877 1005.81 198.316 1019.14 200.068 1032.4 202.258 1058.36 207.576 1083.45 214.27 1107.54 222.091 1130.32 230.976 1141.15 235.796 1151.6 240.803 1161.62 246.062 1171.19 251.571 1180.27 257.206 1188.85 263.03 1196.87 269.044 1204.39 275.184 1211.28 281.452 1217.55 287.847 1223.26 294.31 1228.22 300.964 1232.56 307.621 1236.14 314.412 1238.97 321.208 1240.99 328.072 1242.25 335.002 1242.69 341.928 1242.5 348.84 1241.93 355.688 1239.61 369.358 1235.98 382.779 1231.02 395.948 1224.88 408.613 1217.61 420.712 1209.39 432.245 1200.24 442.965 1190.34 452.869 1179.74 461.772 1168.52 469.611 1156.79 476.26 1144.68 481.59 1138.46 483.789 1132.25 485.547 1125.91 486.991 1119.63 488.059 1113.58 488.58 1113.49 487.583 1119.52 487.064 1119.48 487.07 1125.73 486.007 1125.7 486.013 1132.01 484.575 1131.99 484.581 1138.18 482.831 1138.15 482.841 1144.33 480.654 1144.3 480.667 1156.36 475.355 1156.32 475.378 1168 468.753 1167.96 468.778 1179.15 460.965 1179.12 460.992 1189.68 452.117 1189.65 452.146 1199.52 442.271 1199.49 442.3 1208.62 431.613 1208.59 431.648 1216.78 420.148 1216.76 420.18 1224.01 408.117 1223.99 408.157 1230.11 395.532 1230.09 395.574 1235.03 382.449 1235.02 382.494 1238.64 369.119 1238.63 369.166 1240.94 355.541 1240.94 355.584 1241.5 348.771 1241.5 348.799 1241.69 341.924 1241.69 341.969 1241.25 335.094 1241.26 335.152 1240.01 328.277 1240.02 328.328 1238.02 321.516 1238.04 321.567 1235.23 314.817 1235.25 314.858 1231.68 308.108 1231.71 308.148 1227.39 301.523 1227.41 301.549 1222.47 294.924 1222.5 294.956 1216.81 288.519 1216.83 288.538 1210.58 282.163 1210.6 282.182 1203.73 275.932 1203.75 275.95 1196.25 269.825 1196.26 269.838 1188.26 263.838 1188.28 263.851 1179.72 258.039 1179.74 258.05 1170.67 252.425 1170.69 252.433 1161.13 246.933 1161.14 246.943 1151.14 241.693 1151.16 241.701 1140.72 236.701 1140.73 236.707 1129.92 231.894 1129.94 231.903 1107.19 223.028 1107.22 223.038 1083.16 215.226 1083.18 215.233 1058.12 208.546 1058.15 208.552 1032.21 203.24 1032.23 203.243 1018.98 201.056 1019 201.058 1005.68 199.308 1005.7 199.31 992.197 197.872 992.211 197.874 978.711 196.811 978.727 196.812 965.102 196.187 965.118 196.188 951.493 196ZM1115.04 492.019 1106.88 488.375 1114.69 484.027Z" fill="#70AD47"/><path d="M1198.5 322.167C1198.5 320.694 1199.69 319.5 1201.17 319.5L1271.83 319.5C1273.31 319.5 1274.5 320.694 1274.5 322.167L1274.5 332.833C1274.5 334.306 1273.31 335.5 1271.83 335.5L1201.17 335.5C1199.69 335.5 1198.5 334.306 1198.5 332.833Z" stroke="#70AD47" stroke-miterlimit="8" fill="#E2F0D9" fill-rule="evenodd"/><text fill="#7F7F7F" font-family="Calibri,Calibri_MSFontService,sans-serif" font-style="italic" font-weight="400" font-size="11" transform="translate(1214.3 331)">located at</text><path d="M1177.5 196.5C1177.5 182.141 1196.53 170.5 1220 170.5 1243.47 170.5 1262.5 182.141 1262.5 196.5 1262.5 210.859 1243.47 222.5 1220 222.5 1196.53 222.5 1177.5 210.859 1177.5 196.5Z" stroke="#7F7F7F" stroke-miterlimit="8" fill="#D9D9D9" fill-rule="evenodd"/><text fill="#595959" font-family="Calibri,Calibri_MSFontService,sans-serif" font-weight="700" font-size="15" transform="translate(1210.03 201)">Bill</text><path d="M1034.5 57.0001C1034.5 44.0214 1056.21 33.5001 1083 33.5001 1109.79 33.5001 1131.5 44.0214 1131.5 57.0001 1131.5 69.9787 1109.79 80.5001 1083 80.5001 1056.21 80.5001 1034.5 69.9787 1034.5 57.0001Z" stroke="#7F7F7F" stroke-miterlimit="8" fill="#D9D9D9" fill-rule="evenodd"/><text fill="#595959" font-family="Calibri,Calibri_MSFontService,sans-serif" font-weight="700" font-size="15" transform="translate(1059.99 61)">Subject</text><path d="M0.0233663-0.499454 10.7344 0.00164903 21.3411 1.50792 31.757 3.89228 41.9844 7.15502 51.8333 11.2326 61.3048 15.9997 70.2138 21.3953 78.5582 27.4183 86.278 33.9456 93.184 40.9772 99.2757 48.3249 104.493 56.0565 108.645 64.0458 111.729 72.2294 113.683 80.6115 113.811 82.3146 112.814 82.3896 112.689 80.725 112.701 80.801 110.763 72.4885 110.782 72.5513 107.72 64.4264 107.744 64.4806 103.619 56.5431 103.648 56.5922 98.4605 48.9047 98.4901 48.9441 92.4276 41.6316 92.4558 41.6629 85.5808 34.6629 85.6147 34.6943 77.9272 28.1943 77.9574 28.2179 69.6449 22.2179 69.6785 22.2402 60.8035 16.8652 60.8377 16.8841 51.4002 12.1341 51.4337 12.1495 41.6212 8.08697 41.6605 8.10135 31.473 4.85135 31.5134 4.86239 21.1384 2.48739 21.1797 2.49503 10.6172 0.995033 10.6641 0.999454-0.0233663 0.499454ZM117.201 80.7226 113.812 89 109.224 81.3224Z" fill="#7F7F7F" transform="matrix(-4.37114e-08 -1 -1 4.37114e-08 1220.45 170.265)"/><path d="M1162 107.667C1162 106.194 1163.19 105 1164.67 105L1236.33 105C1237.81 105 1239 106.194 1239 107.667L1239 118.333C1239 119.806 1237.81 121 1236.33 121L1164.67 121C1163.19 121 1162 119.806 1162 118.333Z" fill="#F2F2F2" fill-rule="evenodd"/><text fill="#7F7F7F" font-family="Calibri,Calibri_MSFontService,sans-serif" font-style="italic" font-weight="400" font-size="11" transform="translate(1178.21 117)">deals with</text><path d="M1142 346.45 1142.19 332.379 1142.81 318.428 1143.75 304.728 1145 291.34 1146.57 278.389 1148.44 265.937 1150.57 254.171 1152.95 243.216 1155.52 233.135 1158.28 223.987 1161.16 215.958 1164.18 209.105 1167.33 203.626 1168.94 201.303 1171.3 199.331 1171.94 200.098 1169.63 202.027 1169.72 201.929 1168.16 204.179 1168.18 204.143 1165.06 209.58 1165.08 209.533 1162.08 216.345 1162.1 216.313 1159.22 224.313 1159.23 224.288 1156.48 233.413 1156.48 233.392 1153.92 243.455 1153.93 243.437 1151.55 254.375 1151.55 254.358 1149.43 266.108 1149.43 266.093 1147.56 278.531 1147.56 278.516 1146 291.454 1146 291.44 1144.75 304.815 1144.75 304.803 1143.81 318.49 1143.81 318.479 1143.19 332.416 1143.19 332.4 1143 346.463ZM1168.5 196.876 1177.44 196.456 1172.41 203.856Z" fill="#7F7F7F"/><path d="M1114 275.667C1114 274.194 1115.19 273 1116.67 273L1178.33 273C1179.81 273 1181 274.194 1181 275.667L1181 286.333C1181 287.806 1179.81 289 1178.33 289L1116.67 289C1115.19 289 1114 287.806 1114 286.333Z" fill="#F2F2F2" fill-rule="evenodd"/><text fill="#7F7F7F" font-family="Calibri,Calibri_MSFontService,sans-serif" font-style="italic" font-weight="400" font-size="11" transform="translate(1129.53 284)">votes on</text><path d="M1041.53 290.001 1047.25 290.378 1052.94 291.515 1058.55 293.281 1064.04 295.678 1069.33 298.702 1074.37 302.227 1079.15 306.193 1083.62 310.661 1087.71 315.505 1091.42 320.663 1094.69 326.137 1097.46 331.803 1099.66 337.722 1101.3 343.71 1102.12 349.348 1101.13 349.491 1100.32 343.884 1100.33 343.945 1098.71 338.007 1098.72 338.05 1096.53 332.175 1096.55 332.22 1093.8 326.595 1093.82 326.632 1090.57 321.194 1090.59 321.23 1086.91 316.105 1086.93 316.135 1082.87 311.323 1082.9 311.354 1078.46 306.916 1078.49 306.948 1073.74 303.01 1073.78 303.035 1068.78 299.535 1068.81 299.559 1063.56 296.559 1063.61 296.583 1058.17 294.208 1058.22 294.227 1052.66 292.477 1052.71 292.49 1047.09 291.365 1047.15 291.374 1041.47 290.999ZM1105.5 347.753 1102.19 356.063 1097.53 348.429Z" fill="#7F7F7F"/><path d="M1053 303.667C1053 302.194 1054.19 301 1055.67 301L1098.33 301C1099.81 301 1101 302.194 1101 303.667L1101 314.333C1101 315.806 1099.81 317 1098.33 317L1055.67 317C1054.19 317 1053 315.806 1053 314.333Z" fill="#F2F2F2" fill-rule="evenodd"/><text fill="#7F7F7F" font-family="Calibri,Calibri_MSFontService,sans-serif" font-style="italic" font-weight="400" font-size="11" transform="translate(1064.85 313)">lobby</text><path d="M0.00655374-0.499957 33.3877-0.0623764 66.5248 1.18808 99.0994 3.18882 130.924 5.93985 161.685 9.31604 176.567 11.2545 191.137 13.318 205.331 15.5691 219.025 17.8827 232.345 20.3842 245.103 22.9482 257.362 25.6376 269.121 28.4523 280.256 31.33 290.768 34.3334 300.592 37.3996 309.794 40.5293 318.248 43.7232 325.957 46.9821 332.917 50.3681 339.007 53.6958 344.292 57.156 348.709 60.6267 352.211 64.1924 354.727 68.4089 353.869 68.9213 351.383 64.7562 351.456 64.8503 348.018 61.3504 348.066 61.3932 343.691 57.9557 343.726 57.9808 338.476 54.5433 338.51 54.5638 332.448 51.2513 332.469 51.2621 325.531 47.8871 325.555 47.898 317.868 44.648 317.886 44.6552 309.448 41.4677 309.464 41.4734 300.276 38.3484 300.288 38.3523 290.476 35.2898 290.488 35.2933 279.988 32.2933 280 32.2966 268.875 29.4216 268.884 29.4238 257.134 26.6113 257.143 26.6134 244.893 23.9259 244.901 23.9277 232.151 21.3652 232.158 21.3664 218.845 18.8664 218.854 18.868 205.167 16.5555 205.172 16.5563 190.984 14.3063 190.992 14.3076 176.43 12.2451 176.435 12.2458 161.56 10.3083 161.57 10.3095 130.82 6.93451 130.832 6.93564 99.0194 4.18564 99.0318 4.18656 66.4693 2.18656 66.4811 2.18714 33.3561 0.937144 33.3684 0.937457-0.00655374 0.499957ZM357.684 66.152 356.375 75 350.082 68.6443Z" fill="#7F7F7F" transform="matrix(-1 -8.74228e-08 -8.74228e-08 1 1034.87 56.5001)"/><path d="M823 63.6667C823 62.1939 824.194 61 825.667 61L897.333 61C898.806 61 900 62.1939 900 63.6667L900 74.3333C900 75.8061 898.806 77 897.333 77L825.667 77C824.194 77 823 75.8061 823 74.3333Z" fill="#F2F2F2" fill-rule="evenodd"/><text fill="#7F7F7F" font-family="Calibri,Calibri_MSFontService,sans-serif" font-style="italic" font-weight="400" font-size="11" transform="translate(841.137 73)">relates to</text><path d="M311.5 513.5C311.5 500.798 336.348 490.5 367 490.5 397.652 490.5 422.5 500.798 422.5 513.5 422.5 526.203 397.652 536.5 367 536.5 336.348 536.5 311.5 526.203 311.5 513.5Z" stroke="#ED7D31" stroke-miterlimit="8" fill="#FBE5D6" fill-rule="evenodd"/><text font-family="Calibri,Calibri_MSFontService,sans-serif" font-weight="700" font-size="15" transform="translate(337.402 518)">Symptom</text><path d="M160.5 614.5C160.5 601.797 185.348 591.5 216 591.5 246.652 591.5 271.5 601.797 271.5 614.5 271.5 627.203 246.652 637.5 216 637.5 185.348 637.5 160.5 627.203 160.5 614.5Z" stroke="#ED7D31" stroke-miterlimit="8" fill="#FBE5D6" fill-rule="evenodd"/><text font-family="Calibri,Calibri_MSFontService,sans-serif" font-weight="700" font-size="15" transform="translate(192.196 619)">Disease</text><path d="M50.5001 430.5C50.5001 417.798 75.5721 407.5 106.5 407.5 137.428 407.5 162.5 417.798 162.5 430.5 162.5 443.203 137.428 453.5 106.5 453.5 75.5721 453.5 50.5001 443.203 50.5001 430.5Z" stroke="#ED7D31" stroke-miterlimit="8" fill="#FBE5D6" fill-rule="evenodd"/><text font-family="Calibri,Calibri_MSFontService,sans-serif" font-weight="700" font-size="15" transform="translate(86.9564 435)">Result</text><path d="M226.5 292C226.5 279.574 248.214 269.5 275 269.5 301.786 269.5 323.5 279.574 323.5 292 323.5 304.426 301.786 314.5 275 314.5 248.214 314.5 226.5 304.426 226.5 292Z" stroke="#FFC000" stroke-miterlimit="8" fill="#FFF2CC" fill-rule="evenodd"/><text font-family="Calibri,Calibri_MSFontService,sans-serif" font-weight="700" font-size="15" transform="translate(263.714 289)">Lab<tspan font-style="italic" font-weight="400" font-size="12" x="-13.42" y="15">(provider)</tspan></text><path d="M60.5001 225C60.5001 212.021 86.6914 201.5 119 201.5 151.309 201.5 177.5 212.021 177.5 225 177.5 237.979 151.309 248.5 119 248.5 86.6914 248.5 60.5001 237.979 60.5001 225Z" stroke="#FFC000" stroke-miterlimit="8" fill="#FFF2CC" fill-rule="evenodd"/><text font-family="Calibri,Calibri_MSFontService,sans-serif" font-weight="700" font-size="15" transform="translate(87.7477 230)">Operation</text><path d="M214.5 54.5001C214.5 41.2452 244.273 30.5001 281 30.5001 317.727 30.5001 347.5 41.2452 347.5 54.5001 347.5 67.7549 317.727 78.5001 281 78.5001 244.273 78.5001 214.5 67.7549 214.5 54.5001Z" stroke="#FFC000" stroke-miterlimit="8" fill="#FFF2CC" fill-rule="evenodd"/><text font-family="Calibri,Calibri_MSFontService,sans-serif" font-weight="700" font-size="15" transform="translate(247.985 59)">Treatment</text><path d="M493.172 422.558 492.791 425.797 491.699 429.074 489.973 432.27 487.684 435.322 484.832 438.364 481.416 441.211 477.571 443.859 473.347 446.381 463.795 450.78 453.175 454.173 441.81 456.37 435.958 456.937 430.067 457.125 424.192 457.312 424.224 457.31 418.411 457.873 418.458 457.866 407.146 460.053 407.203 460.039 396.641 463.414 396.699 463.391 387.261 467.766 387.304 467.744 383.054 470.244 383.088 470.222 379.338 472.847 379.371 472.822 375.996 475.634 376.041 475.592 373.228 478.592 373.259 478.555 370.947 481.555 371.011 481.447 369.699 484.514 368.779 484.121 370.116 480.995 372.482 477.926 375.332 474.886 378.747 472.04 382.53 469.392 386.818 466.869 396.306 462.471 406.927 459.077 418.292 456.88 424.144 456.313 430.035 456.125 435.91 455.938 435.878 455.94 441.69 455.377 441.643 455.384 452.956 453.197 452.899 453.211 463.461 449.836 463.404 449.858 472.904 445.483 472.857 445.508 477.044 443.008 477.017 443.026 480.83 440.401 480.793 440.428 484.168 437.616 484.124 437.658 486.936 434.658 486.901 434.7 489.151 431.7 489.111 431.762 490.798 428.637 490.764 428.717 491.826 425.529 491.804 425.629 492.179 422.442ZM373.449 484.081 367.488 490.75 365.73 481.98Z" fill="#ED7D31"/><path d="M417.5 447.167C417.5 445.694 418.694 444.5 420.167 444.5L472.833 444.5C474.306 444.5 475.5 445.694 475.5 447.167L475.5 457.833C475.5 459.306 474.306 460.5 472.833 460.5L420.167 460.5C418.694 460.5 417.5 459.306 417.5 457.833Z" stroke="#ED7D31" stroke-miterlimit="8" fill="#FBE5D6" fill-rule="evenodd"/><text fill="#7F7F7F" font-family="Calibri,Calibri_MSFontService,sans-serif" font-style="italic" font-weight="400" font-size="11" transform="translate(432.241 455)">shows</text><path d="M458.355 415.65 457.633 417.947 455.451 420.261 452.121 422.438 447.633 424.524 442.1 426.599 435.634 428.545 428.238 430.363 420.097 432.054 411.208 433.619 401.696 435.058 391.684 436.309 381.232 437.373 359.338 438.875 336.701 439.375 336.712 439.375 331.024 439.625 331.057 439.622 325.37 440.247 325.408 440.241 319.783 441.304 319.819 441.296 314.194 442.796 314.225 442.786 308.662 444.661 308.692 444.65 303.192 446.9 303.231 446.882 292.419 452.445 292.464 452.418 281.964 459.293 282.007 459.262 272.007 467.449 272.039 467.421 262.539 476.671 262.568 476.64 253.693 486.89 253.72 486.856 245.595 498.044 245.615 498.013 238.24 509.95 238.26 509.916 231.823 522.478 231.839 522.443 226.339 535.63 226.353 535.592 221.915 549.217 221.927 549.176 218.677 563.114 218.685 563.072 216.622 577.26 216.627 577.212 216.259 584.865 215.261 584.817 215.629 577.14 217.698 562.907 220.958 548.928 225.408 535.264 230.924 522.04 237.379 509.442 244.774 497.471 252.923 486.251 261.826 475.969 271.357 466.689 281.394 458.471 291.938 451.567 302.793 445.983 308.328 443.719 313.921 441.834 319.579 440.325 325.241 439.255 330.964 438.626 336.674 438.375 359.304 437.875 359.281 437.876 381.156 436.376 381.139 436.378 391.577 435.315 391.566 435.316 401.566 434.066 401.553 434.068 411.053 432.631 411.041 432.633 419.916 431.07 419.901 431.073 428.026 429.386 428.008 429.39 435.383 427.577 435.358 427.584 441.796 425.646 441.764 425.657 447.264 423.594 447.229 423.609 451.667 421.547 451.604 421.582 454.854 419.457 454.764 419.532 456.826 417.345 456.713 417.538 457.401 415.35ZM219.819 583.701 215.44 591.5 211.829 583.317Z" fill="#ED7D31"/><path d="M247.5 467.167C247.5 465.694 248.694 464.5 250.167 464.5L283.833 464.5C285.306 464.5 286.5 465.694 286.5 467.167L286.5 477.833C286.5 479.306 285.306 480.5 283.833 480.5L250.167 480.5C248.694 480.5 247.5 479.306 247.5 477.833Z" stroke="#ED7D31" stroke-miterlimit="8" fill="#FBE5D6" fill-rule="evenodd"/><text fill="#7F7F7F" font-family="Calibri,Calibri_MSFontService,sans-serif" font-style="italic" font-weight="400" font-size="11" transform="translate(259.015 475)">has</text><path d="M0.0137563-0.499811 6.84246-0.311865 13.6267 0.316309 26.7965 2.51126 39.0928 5.96177 44.8147 8.09962 50.1561 10.4875 55.0608 13.0657 59.5311 15.836 63.4444 18.7394 66.7353 21.7771 69.4698 24.9568 71.4535 28.2843 72.6758 31.6294 73.1205 34.9333 73.558 38.1833 73.5321 38.0784 74.7196 41.3284 74.6795 41.244 76.617 44.494 76.5666 44.424 79.2541 47.549 79.2141 47.5076 82.4641 50.5076 82.4229 50.4734 86.2979 53.3484 86.2634 53.325 90.7009 56.075 90.6701 56.0574 95.5451 58.6199 95.5166 58.606 100.829 60.981 100.8 60.9691 106.487 63.0941 106.448 63.0811 118.698 66.5186 118.645 66.5068 131.77 68.6943 131.728 68.6892 138.629 69.2542 138.547 70.2509 131.626 69.6841 118.454 67.4887 106.157 64.0382 100.435 61.9004 95.0939 59.5125 90.1892 56.9343 85.7189 54.164 81.8055 51.2606 78.5147 48.2229 75.7802 45.0432 73.7965 41.7157 72.5742 38.3706 72.1295 35.0667 71.692 31.8167 71.7179 31.9216 70.5304 28.6716 70.5705 28.756 68.633 25.506 68.6834 25.576 65.9959 22.451 66.0359 22.4924 62.7859 19.4924 62.8271 19.5265 58.9521 16.6515 58.9866 16.675 54.5491 13.925 54.5799 13.9426 49.7049 11.3801 49.7334 11.394 44.4209 9.01896 44.45 9.03088 38.7625 6.90588 38.8024 6.91891 26.5524 3.48141 26.6053 3.4932 13.4803 1.3057 13.5164 1.31037 6.7664 0.68537 6.79874 0.687311-0.0137563 0.499811ZM137.404 65.7058 145.25 70 137.107 73.7003Z" fill="#ED7D31" transform="matrix(-4.37114e-08 -1 -1 4.37114e-08 176.494 598.719)"/><path d="M97.5001 514.167C97.5001 512.694 98.694 511.5 100.167 511.5L171.833 511.5C173.306 511.5 174.5 512.694 174.5 514.167L174.5 524.833C174.5 526.306 173.306 527.5 171.833 527.5L100.167 527.5C98.694 527.5 97.5001 526.306 97.5001 524.833Z" stroke="#ED7D31" stroke-miterlimit="8" fill="#FBE5D6" fill-rule="evenodd"/><text fill="#7F7F7F" font-family="Calibri,Calibri_MSFontService,sans-serif" font-style="italic" font-weight="400" font-size="11" transform="translate(115.327 523)">relates to</text><path d="M0.0242769-0.49941 9.04883-0.0607167 17.9708 1.25873 26.7622 3.39379 35.3643 6.2193 43.7148 9.79808 51.6252 13.9416 59.1583 18.7126 66.2527 23.9863 72.7225 29.7024 78.5651 35.8591 83.7199 42.3339 88.06 49.1272 91.5843 56.1128 94.2331 63.3025 95.7792 71.2639 94.7975 71.4545 93.2592 63.5328 93.2808 63.6104 90.6558 56.4854 90.6786 56.5377 87.1786 49.6002 87.2037 49.6442 82.8912 42.8942 82.9213 42.9364 77.7963 36.4989 77.8248 36.5317 72.0123 30.4067 72.0439 30.4372 65.6064 24.7497 65.6392 24.7763 58.5767 19.5263 58.6075 19.5474 51.1075 14.7974 51.143 14.8179 43.268 10.6929 43.303 10.7096 34.9905 7.14707 35.0315 7.16253 26.469 4.35003 26.507 4.36088 17.757 2.23588 17.8019 2.24462 8.92685 0.93212 8.97572 0.93691-0.0242769 0.49941ZM99.1555 69.679 95.875 78 91.1865 70.383Z" fill="#ED7D31" transform="matrix(1 0 0 -1 271.5 614.495)"/><path d="M297.5 584.167C297.5 582.694 298.694 581.5 300.167 581.5L371.833 581.5C373.306 581.5 374.5 582.694 374.5 584.167L374.5 594.833C374.5 596.306 373.306 597.5 371.833 597.5L300.167 597.5C298.694 597.5 297.5 596.306 297.5 594.833Z" stroke="#ED7D31" stroke-miterlimit="8" fill="#FBE5D6" fill-rule="evenodd"/><text fill="#7F7F7F" font-family="Calibri,Calibri_MSFontService,sans-serif" font-style="italic" font-weight="400" font-size="11" transform="translate(315.013 593)">relates to</text><path d="M160.128 615.456 154.294 615.142 148.499 614.323 142.644 612.938 136.917 611.05 131.194 608.66 125.538 605.769 119.946 602.44 114.421 598.609 109.024 594.405 103.691 589.762 98.5479 584.744 93.4664 579.349 83.7549 567.507 74.6699 554.35 66.339 540.068 58.8233 524.849 52.248 508.693 46.6125 491.848 42.104 474.441 38.7225 456.594 36.6557 438.494 35.967 420.212 36.5298 383.881 37.1551 366.06 38.0304 348.678 39.0934 331.858 40.4066 315.725 41.8448 300.529 43.4709 286.27 45.2224 273.134 47.0994 261.309 48.1012 255.924 49.1026 250.917 50.1053 246.279 51.1714 242.078 52.2381 238.25 53.3083 234.914 54.4604 231.969 55.6855 230.205 56.5069 230.775 55.3154 232.491 55.3703 232.389 54.2453 235.264 54.2558 235.234 53.1933 238.547 53.1988 238.528 52.1363 242.341 52.1393 242.329 51.0768 246.517 51.0809 246.499 50.0809 251.125 50.0824 251.117 49.0824 256.117 49.0837 256.11 48.0837 261.485 48.086 261.472 46.211 273.285 46.2128 273.272 44.4628 286.397 44.4639 286.388 42.8389 300.638 42.8399 300.628 41.4024 315.816 41.403 315.809 40.0905 331.934 40.0912 331.925 39.0287 348.738 39.029 348.731 38.154 366.106 38.1544 366.099 37.5294 383.911 37.5296 383.902 36.9671 420.214 36.9668 420.188 37.6543 438.438 37.6514 438.4 39.7139 456.462 39.7084 456.426 43.0834 474.238 43.0762 474.206 47.5762 491.581 47.5663 491.548 53.1913 508.36 53.1803 508.33 59.7428 524.455 59.728 524.422 67.228 539.61 67.2115 539.579 75.524 553.829 75.5036 553.797 84.5661 566.922 84.5413 566.889 94.2288 578.702 94.2061 578.676 99.2686 584.051 99.2538 584.036 104.379 589.036 104.358 589.017 109.67 593.642 109.649 593.624 115.024 597.812 115.002 597.795 120.502 601.608 120.473 601.589 126.035 604.902 126.007 604.886 131.632 607.761 131.597 607.745 137.285 610.12 137.249 610.106 142.936 611.981 142.895 611.97 148.707 613.345 148.662 613.336 154.412 614.149 154.369 614.145 160.181 614.457ZM52.2017 228.874 60.4671 225.456 58.2423 234.119Z" fill="#ED7D31"/><path d="M176.994 630.967 176.545 633.917 175.114 636.845 172.871 639.729 169.88 642.529 166.148 645.186 161.8 647.769 156.893 650.16 151.429 652.421 145.529 654.492 139.126 656.376 125.463 659.447 110.794 661.39 95.6703 662.08 91.7626 661.632 87.9176 660.286 84.0961 658.12 80.2912 655.14 76.5664 651.352 72.8522 646.882 69.207 641.666 65.5663 635.766 62.0537 629.18 58.6073 621.973 55.2255 614.145 51.907 605.755 48.7145 596.803 45.5856 587.292 42.5824 577.344 39.6418 566.833 36.8894 555.948 34.1998 544.626 31.6978 532.929 29.3208 520.857 25.006 495.781 21.3163 469.578 18.3772 442.438 16.1885 414.673 14.8127 386.47 14.375 358.015 14.6879 343.747 15.5015 329.539 16.941 315.394 18.881 301.314 21.3216 287.359 24.2627 273.529 27.642 259.887 31.522 246.432 35.84 233.165 40.5958 220.212 45.727 207.447 51.2342 195.055 57.1167 182.977 63.3127 171.274 69.8848 159.945 76.7696 149.054 83.9053 138.601 91.3554 128.584 99.056 119.131 106.945 110.177 115.149 101.722 123.48 93.8931 132 86.6882 140.71 80.1085 149.549 74.2164 158.577 69.0123 167.67 64.5601 176.829 60.7961 186.118 57.8462 195.409 55.7117 204.829 54.393 207.505 54.2673 207.552 55.2662 204.898 55.3909 204.944 55.3865 195.569 56.6991 195.612 56.6912 186.362 58.8162 186.401 58.8054 177.151 61.7429 177.19 61.7289 168.065 65.4789 168.095 65.4655 159.032 69.903 159.062 69.8871 150.062 75.0746 150.09 75.0574 141.277 80.9324 141.301 80.9153 132.614 87.4778 132.635 87.4607 124.135 94.6482 124.155 94.6307 115.842 102.443 115.859 102.427 107.671 110.865 107.688 110.847 99.8127 119.784 99.8252 119.77 92.1377 129.207 92.1513 129.19 84.7138 139.19 84.7255 139.173 77.6005 149.611 77.6102 149.596 70.7352 160.471 70.745 160.455 64.1825 171.767 64.1919 171.75 58.0044 183.438 58.0121 183.423 52.1371 195.485 52.1444 195.469 46.6444 207.844 46.6515 207.828 41.5265 220.578 41.5319 220.564 36.7819 233.501 36.788 233.484 32.4755 246.734 32.4805 246.717 28.6055 260.155 28.6104 260.137 25.2354 273.762 25.2391 273.745 22.3016 287.558 22.3051 287.54 19.8676 301.478 19.8704 301.46 17.9329 315.522 17.935 315.505 16.4975 329.63 16.4992 329.607 15.6867 343.795 15.6874 343.777 15.3749 358.027 15.375 358.009 15.8125 386.446 15.812 386.43 17.187 414.617 17.186 414.602 19.3735 442.352 19.3721 442.338 22.3096 469.463 22.3077 469.447 25.9952 495.634 25.9928 495.619 30.3053 520.682 30.3031 520.67 32.6781 532.732 32.6765 532.724 35.1765 544.412 35.174 544.401 37.8615 555.713 37.8598 555.706 40.6098 566.581 40.6066 566.569 43.5441 577.069 43.5412 577.059 46.5412 586.997 46.5375 586.985 49.6625 596.485 49.6585 596.473 52.846 605.411 52.84 605.395 56.1525 613.77 56.1465 613.756 59.5215 621.568 59.5136 621.551 62.9511 628.738 62.9412 628.719 66.4412 635.281 66.4256 635.254 70.0506 641.129 70.0349 641.105 73.6599 646.292 73.6346 646.259 77.3221 650.697 77.2941 650.666 80.9816 654.416 80.9334 654.373 84.6834 657.31 84.6216 657.269 88.3716 659.394 88.2902 659.357 92.0402 660.669 91.9321 660.645 95.7446 661.082 95.6648 661.079 110.727 660.392 110.684 660.396 125.309 658.458 125.265 658.466 138.89 655.404 138.859 655.412 145.234 653.537 145.209 653.545 151.084 651.482 151.059 651.492 156.496 649.242 156.469 649.254 161.344 646.879 161.307 646.899 165.62 644.336 165.585 644.359 169.273 641.734 169.221 641.776 172.158 639.026 172.105 639.084 174.293 636.272 174.238 636.359 175.613 633.547 175.568 633.691 176.006 630.816ZM206.009 50.8337 214.188 54.4539 206.384 58.8249Z" fill="#ED7D31"/><path d="M2.50005 272.167C2.50005 270.694 3.69398 269.5 5.16676 269.5L38.8333 269.5C40.3061 269.5 41.5001 270.694 41.5001 272.167L41.5001 282.833C41.5001 284.306 40.3061 285.5 38.8333 285.5L5.16676 285.5C3.69398 285.5 2.50005 284.306 2.50005 282.833Z" stroke="#ED7D31" stroke-miterlimit="8" fill="#FBE5D6" fill-rule="evenodd"/><text fill="#7F7F7F" font-family="Calibri,Calibri_MSFontService,sans-serif" font-style="italic" font-weight="400" font-size="11" transform="translate(13.7451 280)">has</text><path d="M23.5001 346.167C23.5001 344.694 24.694 343.5 26.1667 343.5L88.8334 343.5C90.3061 343.5 91.5001 344.694 91.5001 346.167L91.5001 356.833C91.5001 358.306 90.3061 359.5 88.8334 359.5L26.1667 359.5C24.694 359.5 23.5001 358.306 23.5001 356.833Z" stroke="#ED7D31" stroke-miterlimit="8" fill="#FBE5D6" fill-rule="evenodd"/><text fill="#7F7F7F" font-family="Calibri,Calibri_MSFontService,sans-serif" font-style="italic" font-weight="400" font-size="11" transform="translate(39.2614 354)">requires</text><path d="M0.0427006 0.498173-4.3323 0.873173-4.25213 0.859667-8.68963 1.98467-8.61554 1.95957-12.9905 3.83457-12.9348 3.80644-17.3098 6.36894-17.2653 6.33959-21.5778 9.52709-21.5381 9.49448-25.7881 13.3695-25.7615 13.3433-30.0115 17.8433-29.9855 17.8135-34.1105 22.9385-34.0952 22.9186-38.2202 28.6061-38.2051 28.584-42.2051 34.7715-42.1921 34.7502-46.1296 41.5627-46.12 41.5452-49.9325 48.7952-49.9249 48.7803-53.6749 56.5303-53.6678 56.5149-57.2928 64.7024-57.2862 64.6868-60.7862 73.3743-60.7818 73.3631-64.1568 82.3631-64.1522 82.3503-67.4022 91.7878-67.3977 91.774-70.4602 101.586-70.4555 101.57-76.143 122.195-76.1381 122.176-81.2006 143.864-81.196 143.842-85.446 166.592-85.4428 166.573-88.8803 190.01-88.8777 189.989-91.3777 214.052-91.376 214.032-92.9385 238.469-92.9376 238.449-93.5001 263.074-93.5002 263.05-93.1877 275.362-93.1886 275.342-92.3761 287.655-92.3781 287.632-91.0031 299.882-91.0062 299.859-89.0687 312.046-89.0718 312.029-86.6968 324.154-86.702 324.131-83.7645 336.068-83.7686 336.052-80.4561 347.865-80.4629 347.843-76.5879 359.53-76.5938 359.513-72.3438 370.951-72.3501 370.935-67.7251 382.185-67.7333 382.166-62.6708 393.166-62.6788 393.149-57.2413 403.899-57.2551 403.874-45.3176 424.436-45.3319 424.413-38.8944 434.226-38.9071 434.207-32.0946 443.645-32.1056 443.63-25.0431 452.693-25.0561 452.677-17.7436 461.302-17.7577 461.286-10.1952 469.473-10.2104 469.458-2.39787 477.207-2.41568 477.191 5.64682 484.441 5.6323 484.428 13.8198 491.241 13.7957 491.222 22.2332 497.409 22.2141 497.396 30.7766 503.083 30.7527 503.069 39.5027 508.194 39.4774 508.18 48.2899 512.68 48.2614 512.666 57.1989 516.541 57.1659 516.528 66.2284 519.716 66.1977 519.706 75.3227 522.269 75.2881 522.26 84.4131 524.135 84.3733 524.129 93.5608 525.254 93.5202 525.25 96.1091 525.355 96.0686 526.354 93.4594 526.249 84.2317 525.119 75.0694 523.236 65.9118 520.664 56.8174 517.466 47.8491 513.577 39.0098 509.064 30.2351 503.924 21.6512 498.223 13.192 492.019 4.98532 485.191-3.09343 477.926-10.9224 470.16-18.4995 461.956-25.8255 453.315-32.9 444.238-39.7244 434.784-46.1756 424.95-58.1272 404.364-63.5753 393.592-68.646 382.575-73.2782 371.307-77.5343 359.853-81.4158 348.146-84.7336 336.315-87.6759 324.358-90.0549 312.212-91.9956 300.005-93.3732 287.732-94.1871 275.398-94.5001 263.063-93.9371 238.416-92.3733 213.958-89.8712 189.875-86.4308 166.418-82.1769 143.647-77.1096 121.939-71.4173 101.297-68.3501 91.4691-65.0955 82.0183-61.716 73.0063-58.2106 64.3053-54.5788 56.1023-50.8214 48.3372-47.0004 41.0709-43.0517 34.239-39.0376 28.0298-34.8974 22.3213-30.7521 17.1711-26.4757 12.6431-22.1929 8.7382-17.8382 5.51955-13.4132 2.92775-8.9734 1.02497-4.45834-0.11969-0.0427006-0.498173ZM94.9186 521.804 102.75 526.125 94.5945 529.798Z" fill="#FFC000" transform="matrix(-4.37114e-08 -1 -1 4.37114e-08 800.605 417.227)"/><path d="M835.961 410.519 835.523 422.286 834.27 434.069 832.264 445.851 829.444 457.508 825.872 469.036 821.612 480.501 816.601 491.839 810.964 502.987 804.702 513.946 797.814 524.717 790.363 535.236 782.349 545.504 773.771 555.522 764.694 565.162 755.18 574.552 745.164 583.565 734.774 592.266 723.944 600.529 712.74 608.353 701.223 615.739 689.331 622.686 677.188 629.196 664.794 635.143 652.149 640.589 639.253 645.472 626.233 649.728 613.023 653.485 599.625 656.552 586.226 658.994 572.638 660.748 559.05 661.812 545.467 662.188 518.33 662 491.387 661.5 464.818 660.687 438.936 659.562 413.93 658.124 389.924 656.499 367.23 654.623 356.413 653.623 346.035 652.56 336.029 651.497 326.523 650.309 317.457 649.121 308.889 647.932 300.879 646.681 293.434 645.367 286.551 644.053 280.288 642.738 274.648 641.359 269.628 639.978 265.354 638.533 261.715 637.128 260.054 635.86 260.66 635.065 262.265 636.29 262.142 636.221 265.704 637.596 265.684 637.589 269.934 639.026 269.907 639.018 274.907 640.393 274.893 640.389 280.518 641.764 280.502 641.761 286.752 643.073 286.743 643.071 293.618 644.384 293.611 644.383 301.048 645.695 301.039 645.694 309.039 646.944 309.03 646.942 317.593 648.13 317.589 648.129 326.652 649.317 326.649 649.316 336.149 650.504 336.139 650.503 346.139 651.565 346.137 651.565 356.512 652.628 356.508 652.627 367.32 653.627 367.315 653.627 390.003 655.502 389.995 655.501 413.995 657.126 413.99 657.126 438.99 658.563 438.983 658.563 464.858 659.688 464.852 659.688 491.414 660.5 491.408 660.5 518.346 661 518.34 661 545.465 661.188 545.448 661.188 559.01 660.813 558.985 660.814 572.547 659.752 572.523 659.754 586.085 658.004 586.059 658.008 599.434 655.571 599.412 655.575 612.787 652.513 612.762 652.519 625.95 648.769 625.931 648.775 638.931 644.525 638.909 644.532 651.784 639.657 651.764 639.666 664.389 634.228 664.37 634.237 676.745 628.299 676.725 628.309 688.85 621.809 688.834 621.818 700.709 614.881 700.692 614.892 712.192 607.517 712.175 607.528 723.363 599.715 723.346 599.728 734.158 591.478 734.141 591.492 744.516 582.804 744.502 582.816 754.502 573.816 754.485 573.832 763.985 564.457 763.972 564.47 773.035 554.845 773.019 554.862 781.582 544.862 781.567 544.88 789.567 534.63 789.553 534.649 796.991 524.149 796.978 524.168 803.853 513.418 803.84 513.44 810.09 502.502 810.078 502.524 815.703 491.399 815.692 491.423 820.692 480.11 820.68 480.138 824.93 468.701 824.921 468.727 828.484 457.227 828.476 457.258 831.288 445.633 831.281 445.666 833.281 433.916 833.277 433.947 834.527 422.197 834.524 422.231 834.962 410.481ZM258.621 639.305 255.461 630.938 264.051 633.431Z" fill="#FFC000"/><path d="M508.5 504.167C508.5 502.694 509.694 501.5 511.167 501.5L563.833 501.5C565.306 501.5 566.5 502.694 566.5 504.167L566.5 514.833C566.5 516.306 565.306 517.5 563.833 517.5L511.167 517.5C509.694 517.5 508.5 516.306 508.5 514.833Z" stroke="#FFC000" stroke-miterlimit="8" fill="#FFF2CC" fill-rule="evenodd"/><text fill="#7F7F7F" font-family="Calibri,Calibri_MSFontService,sans-serif" font-style="italic" font-weight="400" font-size="11" transform="translate(523.065 512)">orders</text><path d="M516.5 654.167C516.5 652.694 517.694 651.5 519.167 651.5L590.833 651.5C592.306 651.5 593.5 652.694 593.5 654.167L593.5 664.833C593.5 666.306 592.306 667.5 590.833 667.5L519.167 667.5C517.694 667.5 516.5 666.306 516.5 664.833Z" stroke="#FFC000" stroke-miterlimit="8" fill="#FFF2CC" fill-rule="evenodd"/><text fill="#7F7F7F" font-family="Calibri,Calibri_MSFontService,sans-serif" font-style="italic" font-weight="400" font-size="11" transform="translate(532.656 662)">diagnoses</text><path d="M444.287 399.51 438.575 399.196 432.898 398.313 427.351 396.8 421.937 394.848 416.647 392.392 411.61 389.496 406.889 386.222 402.419 382.572 398.326 378.604 394.609 374.321 391.396 369.847 388.621 365.18 386.411 360.317 384.768 355.326 383.756 350.329 383.379 345.235 383.004 340.172 383.012 340.235 382.012 335.297 382.027 335.354 380.402 330.417 380.422 330.467 378.234 325.655 378.26 325.703 375.51 321.078 375.534 321.115 372.346 316.677 372.377 316.716 368.689 312.528 368.717 312.557 364.654 308.619 364.686 308.648 360.248 305.023 360.28 305.046 355.592 301.796 355.628 301.819 350.628 298.944 350.667 298.964 345.417 296.526 345.458 296.543 340.083 294.606 340.121 294.618 334.621 293.118 334.685 293.131 330.016 292.5 330.15 291.509 334.852 292.144 340.403 293.658 345.818 295.61 351.107 298.066 356.145 300.962 360.866 304.236 365.335 307.886 369.427 311.853 373.144 316.073 376.358 320.549 379.133 325.216 381.344 330.078 382.986 335.07 383.998 340.067 384.376 345.161 384.751 350.223 384.742 350.161 385.742 355.099 385.727 355.041 387.352 359.979 387.332 359.928 389.52 364.741 389.494 364.692 392.244 369.317 392.221 369.281 395.408 373.719 395.38 373.683 399.067 377.933 399.038 377.901 403.1 381.839 403.068 381.811 407.506 385.436 407.475 385.412 412.162 388.662 412.126 388.639 417.126 391.514 417.088 391.494 422.338 393.932 422.297 393.915 427.672 395.852 427.634 395.84 433.134 397.34 433.079 397.329 438.704 398.204 438.655 398.199 444.342 398.511ZM331.078 296.102 323.44 291.448 331.746 288.13Z" fill="#ED7D31"/><path d="M358.5 338.167C358.5 336.694 359.694 335.5 361.167 335.5L403.833 335.5C405.306 335.5 406.5 336.694 406.5 338.167L406.5 348.833C406.5 350.306 405.306 351.5 403.833 351.5L361.167 351.5C359.694 351.5 358.5 350.306 358.5 348.833Z" stroke="#ED7D31" stroke-miterlimit="8" fill="#FBE5D6" fill-rule="evenodd"/><text fill="#7F7F7F" font-family="Calibri,Calibri_MSFontService,sans-serif" font-style="italic" font-weight="400" font-size="11" transform="translate(370.05 346)">takes</text><path d="M0.0304987-0.499069 11.307 0.190048 22.4856 2.07408 33.4727 5.21328 44.2045 9.41813 54.6201 14.6887 64.5319 20.8365 73.9409 27.8619 82.7221 35.6395 90.8136 44.1074 98.0903 53.1405 104.553 62.7408 109.951 72.72 114.345 83.0154 117.611 93.6301 119.622 104.375 119.888 108.565 118.89 108.628 118.626 104.469 118.634 104.529 116.634 93.842 116.647 93.897 113.397 83.3345 113.415 83.3838 109.04 73.1338 109.06 73.1754 103.685 63.2379 103.71 63.2792 97.2727 53.7167 97.2981 53.7512 90.0481 44.7512 90.076 44.7829 82.0135 36.3454 82.0435 36.3743 73.2935 28.6243 73.3259 28.6506 63.9509 21.6506 63.9864 21.6749 54.1115 15.5499 54.1492 15.5711 43.7742 10.3211 43.8176 10.3405 33.1301 6.15304 33.1751 6.16826 22.2376 3.04326 22.2919 3.05555 11.1669 1.18055 11.2195 1.18657-0.0304987 0.499069ZM123.297 107.012 119.812 115.25 115.313 107.52Z" fill="#FFC000" transform="matrix(-1 -8.74228e-08 -8.74228e-08 1 226.311 291.5)"/><path d="M129.5 312.167C129.5 310.694 130.694 309.5 132.167 309.5L194.833 309.5C196.306 309.5 197.5 310.694 197.5 312.167L197.5 322.833C197.5 324.306 196.306 325.5 194.833 325.5L132.167 325.5C130.694 325.5 129.5 324.306 129.5 322.833Z" stroke="#FFC000" stroke-miterlimit="8" fill="#FFF2CC" fill-rule="evenodd"/><text fill="#7F7F7F" font-family="Calibri,Calibri_MSFontService,sans-serif" font-style="italic" font-weight="400" font-size="11" transform="translate(144.662 321)">provides</text><path d="M752.214 395.142 731.887 394.516 711.797 392.764 691.957 389.948 672.556 386.067 653.843 381.311 635.942 375.74 618.976 369.354 603.072 362.217 588.485 354.516 581.714 350.504 575.321 346.304 569.303 341.979 563.722 337.589 558.577 333.072 553.868 328.488 549.66 323.777 545.887 319.062 542.675 314.213 540.03 309.362 537.884 304.44 536.368 299.45 535.42 294.518 535.105 289.545 534.855 284.605 534.861 284.662 534.048 279.787 534.058 279.833 532.746 274.895 532.761 274.943 530.949 270.131 530.965 270.169 528.652 265.294 528.671 265.33 525.921 260.58 525.941 260.612 522.691 255.862 522.711 255.888 519.086 251.263 519.106 251.287 515.043 246.725 515.061 246.743 510.623 242.243 510.643 242.262 505.83 237.887 505.847 237.901 500.659 233.589 500.685 233.609 489.311 225.359 489.346 225.383 476.721 217.758 476.748 217.773 463.061 210.648 463.092 210.663 448.405 204.288 448.435 204.3 432.935 198.738 432.963 198.747 416.776 193.997 416.804 194.004 400.054 190.129 400.086 190.135 382.961 187.323 382.992 187.327 365.554 185.577 365.586 185.579 348.024 184.954 348.05 184.954 313.05 185.517 313.06 185.517 295.935 186.142 295.943 186.141 279.193 187.016 279.199 187.016 263.012 188.078 263.021 188.078 247.521 189.39 247.528 189.39 232.84 190.827 232.851 190.826 219.163 192.451 219.173 192.45 206.548 194.2 206.56 194.198 195.185 196.073 195.199 196.07 190.011 197.07 190.018 197.069 185.206 198.069 185.214 198.067 180.777 199.067 180.793 199.063 176.731 200.126 176.745 200.122 173.12 201.184 173.134 201.18 169.884 202.242 169.918 202.23 167.168 203.355 167.277 203.294 165.755 204.422 165.16 203.619 166.732 202.453 169.557 201.297 172.831 200.227 176.471 199.16 180.548 198.094 184.998 197.091 189.818 196.089 195.016 195.087 206.404 193.21 219.04 191.459 232.738 189.832 247.434 188.394 262.942 187.081 279.137 186.018 295.894 185.142 313.028 184.517 348.046 183.954 365.638 184.58 383.107 186.334 400.264 189.151 417.043 193.033 433.259 197.791 448.788 203.364 463.507 209.753 477.224 216.893 489.881 224.537 501.286 232.809 506.495 237.14 511.326 241.531 515.782 246.05 519.863 250.634 523.508 255.284 526.777 260.063 529.547 264.847 531.877 269.759 533.706 274.614 535.031 279.599 535.852 284.526 536.103 289.492 536.103 289.485 536.416 294.423 536.408 294.36 537.345 299.235 537.333 299.184 538.833 304.122 538.812 304.067 540.937 308.942 540.918 308.903 543.543 313.715 543.521 313.678 546.708 318.491 546.682 318.455 550.432 323.142 550.414 323.121 554.602 327.809 554.578 327.784 559.265 332.346 559.246 332.329 564.371 336.829 564.351 336.811 569.913 341.186 569.896 341.173 575.896 345.486 575.879 345.474 582.254 349.662 582.234 349.649 588.984 353.649 588.963 353.637 603.525 361.325 603.496 361.311 619.371 368.436 619.343 368.424 636.28 374.799 636.253 374.79 654.128 380.352 654.102 380.345 672.79 385.095 672.765 385.089 692.14 388.964 692.112 388.959 711.924 391.772 711.898 391.769 731.96 393.519 731.932 393.517 752.244 394.142ZM169.114 206.121 160.479 208.455 163.793 200.147Z" fill="#FFC000"/><path d="M341.5 180.167C341.5 178.694 342.694 177.5 344.167 177.5L386.833 177.5C388.306 177.5 389.5 178.694 389.5 180.167L389.5 190.833C389.5 192.306 388.306 193.5 386.833 193.5L344.167 193.5C342.694 193.5 341.5 192.306 341.5 190.833Z" stroke="#ED7D31" stroke-miterlimit="8" fill="#FFF2CC" fill-rule="evenodd"/><text fill="#7F7F7F" font-family="Calibri,Calibri_MSFontService,sans-serif" font-style="italic" font-weight="400" font-size="11" transform="translate(353.449 188)">gives</text><path d="M234.437 71.5255 234.123 77.6786 233.115 83.7897 231.604 89.7725 229.463 95.6273 226.883 101.29 223.8 106.703 220.277 111.86 216.439 116.643 212.223 121.048 207.689 125.078 202.9 128.543 197.922 131.505 192.814 133.902 187.506 135.734 182.129 136.809 176.723 137.186 171.348 137.561 171.411 137.553 166.098 138.615 166.163 138.598 160.913 140.41 160.963 140.39 155.9 142.765 155.943 142.742 151.006 145.68 151.043 145.655 146.293 149.093 146.335 149.059 141.898 153.059 141.924 153.033 137.736 157.408 137.763 157.379 133.888 162.129 133.914 162.093 130.476 167.156 130.497 167.123 127.435 172.498 127.455 172.457 124.893 178.082 124.907 178.047 122.782 183.859 122.798 183.809 121.298 189.809 121.308 189.759 120.513 195.238 119.523 195.094 120.322 189.591 121.834 183.541 123.975 177.685 126.555 172.022 129.638 166.61 133.099 161.514 137 156.731 141.214 152.329 145.685 148.298 150.475 144.832 155.453 141.87 160.562 139.474 165.869 137.641 171.246 136.566 176.653 136.189 182.028 135.814 181.965 135.822 187.277 134.76 187.212 134.777 192.462 132.965 192.413 132.985 197.475 130.61 197.432 130.633 202.37 127.695 202.332 127.72 207.082 124.282 207.043 124.314 211.543 120.314 211.514 120.342 215.702 115.967 215.673 116 219.485 111.25 219.462 111.281 222.962 106.156 222.941 106.19 226.003 100.815 225.983 100.855 228.545 95.2303 228.531 95.2659 230.656 89.4534 230.64 89.5026 232.14 83.5651 232.132 83.6062 233.132 77.5437 233.126 77.5996 233.438 71.4746ZM124.109 194.147 119.5 201.813 116.133 193.526Z" fill="#FFC000"/><path d="M166.5 130.167C166.5 128.694 167.694 127.5 169.167 127.5L202.833 127.5C204.306 127.5 205.5 128.694 205.5 130.167L205.5 140.833C205.5 142.306 204.306 143.5 202.833 143.5L169.167 143.5C167.694 143.5 166.5 142.306 166.5 140.833Z" stroke="#FFC000" stroke-miterlimit="8" fill="#FFF2CC" fill-rule="evenodd"/><text fill="#7F7F7F" font-family="Calibri,Calibri_MSFontService,sans-serif" font-style="italic" font-weight="400" font-size="11" transform="translate(177.895 138)">has</text><path d="M0.0175331-0.499692 14.2851 0.000923659 28.5058 1.50444 42.4751 3.88485 56.1307 7.14215 69.3487 11.1514 81.9412 15.9128 93.9086 21.3012 105.127 27.318 115.409 33.8382 124.693 40.8009 132.855 48.1465 139.767 55.8763 145.361 63.8583 147.634 67.8986 149.526 72.0608 151.041 76.2269 152.116 80.3999 152.748 84.5725 152.999 88.7827 153.249 92.9702 153.244 92.9251 153.869 97.0501 153.859 97.0003 154.922 101.125 154.907 101.079 156.407 105.204 156.391 105.165 158.266 109.228 158.25 109.195 160.5 113.258 160.471 113.212 166.033 121.087 165.998 121.042 172.873 128.729 172.834 128.691 180.959 136.003 180.925 135.975 190.175 142.912 190.142 142.889 200.454 149.389 200.425 149.372 211.55 155.372 211.518 155.357 223.455 160.732 223.427 160.72 235.989 165.47 235.958 165.459 249.145 169.459 249.116 169.451 262.741 172.701 262.709 172.695 276.646 175.07 276.615 175.065 290.803 176.565 290.768 176.563 298.355 176.829 298.32 177.828 290.715 177.562 276.494 176.058 262.525 173.678 248.869 170.42 235.651 166.411 223.059 161.65 211.091 156.261 199.935 150.245 189.591 143.725 180.307 136.762 172.145 129.416 165.233 121.687 159.638 113.766 157.366 109.664 155.475 105.566 153.959 101.398 152.884 97.2251 152.252 93.0525 152.001 88.8423 151.751 84.6548 151.756 84.6999 151.131 80.5749 151.141 80.6247 150.078 76.4997 150.093 76.5459 148.593 72.4209 148.607 72.4569 146.732 68.3319 146.752 68.3701 144.502 64.3701 144.528 64.4119 138.966 56.4744 139.002 56.5208 132.127 48.8333 132.166 48.8716 124.041 41.5591 124.075 41.5875 114.825 34.65 114.857 34.6723 104.607 28.1723 104.639 28.1906 93.4512 22.1906 93.4822 22.2059 81.5447 16.8309 81.5732 16.8427 69.0107 12.0927 69.0424 12.1035 55.8549 8.10347 55.884 8.11135 42.259 4.86135 42.291 4.86789 28.3535 2.49289 28.3849 2.49723 14.1974 0.997229 14.2325 0.999692-0.0175331 0.499692ZM297.145 173.284 305 177.562 296.865 181.28Z" fill="#ED7D31" transform="matrix(-4.37114e-08 -1 -1 4.37114e-08 458.005 383.447)"/><path d="M264.5 116.167C264.5 114.694 265.694 113.5 267.167 113.5L309.833 113.5C311.306 113.5 312.5 114.694 312.5 116.167L312.5 126.833C312.5 128.306 311.306 129.5 309.833 129.5L267.167 129.5C265.694 129.5 264.5 128.306 264.5 126.833Z" stroke="#ED7D31" stroke-miterlimit="8" fill="#FBE5D6" fill-rule="evenodd"/><text fill="#7F7F7F" font-family="Calibri,Calibri_MSFontService,sans-serif" font-style="italic" font-weight="400" font-size="11" transform="translate(276.721 124)">takes</text><path d="M0.00912257-0.499917 17.1451-0.187216 34.2268 0.876481 51.2451 2.50323 68.201 4.81823 85.0314 7.69629 101.612 11.2001 118.065 15.2666 134.27 19.8338 150.162 24.9642 165.802 30.5947 181.13 36.6637 196.021 43.2331 210.537 50.1779 224.616 57.5616 238.256 65.3829 251.397 73.5177 263.976 82.0288 275.992 90.8533 287.383 99.9914 298.149 109.38 308.292 119.022 317.684 128.978 326.388 139.122 334.281 149.395 341.361 159.921 347.627 170.574 353.018 181.355 357.532 192.265 361.045 203.242 363.617 214.345 365.248 225.452 365.75 236.555 365.062 280.701 364.249 302.335 363.124 323.468 361.686 343.913 360.06 363.421 358.184 381.992 356.121 399.251 354.995 407.447 353.806 415.203 352.618 422.582 351.429 429.591 350.115 436.1 348.863 442.17 347.548 447.809 346.168 452.949 344.789 457.527 343.406 461.613 341.945 465.169 339.593 468.832 338.752 468.291 341.079 464.667 341.037 464.747 342.475 461.247 342.464 461.277 343.839 457.215 343.834 457.231 345.209 452.668 345.205 452.683 346.58 447.558 346.576 447.574 347.888 441.949 347.885 441.962 349.135 435.899 349.135 435.901 350.447 429.401 350.444 429.416 351.632 422.416 351.631 422.421 352.819 415.046 352.818 415.049 354.006 407.299 354.005 407.307 355.13 399.119 355.129 399.128 357.191 381.878 357.19 381.887 359.065 363.325 359.064 363.333 360.689 343.833 360.689 343.84 362.126 323.402 362.126 323.411 363.251 302.286 363.25 302.294 364.063 280.669 364.063 280.68 364.75 236.555 364.75 236.585 364.25 225.523 364.255 225.573 362.63 214.51 362.638 214.55 360.075 203.488 360.086 203.527 356.586 192.59 356.6 192.629 352.1 181.754 352.115 181.786 346.74 171.036 346.757 171.066 340.507 160.441 340.523 160.467 333.46 149.967 333.478 149.992 325.604 139.742 325.621 139.763 316.933 129.638 316.949 129.656 307.574 119.718 307.593 119.737 297.468 110.112 297.484 110.127 286.734 100.752 286.75 100.765 275.375 91.64 275.392 91.653 263.392 82.8405 263.407 82.8516 250.845 74.3516 250.862 74.3626 237.737 66.2376 237.751 66.2463 224.126 58.4338 224.143 58.4428 210.08 51.0678 210.097 51.076 195.597 44.1385 195.611 44.145 180.736 37.5825 180.753 37.5899 165.441 31.5274 165.456 31.5329 149.831 25.9079 149.846 25.9133 133.971 20.7883 133.989 20.7937 117.802 16.2312 117.818 16.2354 101.38 12.1729 101.397 12.1767 84.8341 8.6767 84.8532 8.68035 68.0407 5.80535 68.0574 5.8079 51.1199 3.4954 51.1399 3.49773 34.1399 1.87273 34.1564 1.87403 17.0939 0.811533 17.1159 0.812417-0.00912257 0.499917ZM342.882 470.565 334.312 473.125 337.406 464.733Z" fill="#FFC000" transform="matrix(-4.37114e-08 -1 -1 4.37114e-08 800.613 371.794)"/><path d="M632.5 38.1668C632.5 36.694 633.694 35.5001 635.167 35.5001L677.833 35.5001C679.306 35.5001 680.5 36.694 680.5 38.1668L680.5 48.8333C680.5 50.3061 679.306 51.5001 677.833 51.5001L635.167 51.5001C633.694 51.5001 632.5 50.3061 632.5 48.8333Z" stroke="#FFC000" stroke-miterlimit="8" fill="#FFF2CC" fill-rule="evenodd"/><text fill="#7F7F7F" font-family="Calibri,Calibri_MSFontService,sans-serif" font-style="italic" font-weight="400" font-size="11" transform="translate(645.221 47)">gives<tspan fill="#000000" font-style="normal" font-weight="700" font-size="24" x="-640.332" y="-22">Extended </tspan><tspan fill="#000000" font-style="normal" font-weight="700" font-size="24" x="-541.625" y="-22">View</tspan></text><path d="M0.0223657-0.499499 4.23157-0.311028 8.53385 0.258392 16.9748 2.46313 25.2261 5.99038 33.3425 10.7721 41.1358 16.7428 48.6073 23.7121 55.6999 31.6206 62.2868 40.4658 68.3694 49.9974 73.8245 60.2178 78.6516 71.0632 82.7261 82.3464 86.0485 94.0061 88.4938 105.919 89.9987 118.084 90.4996 130.292 90.9996 142.479 90.9962 142.439 92.4962 154.564 92.4898 154.524 94.9273 166.399 94.9184 166.363 98.2309 177.988 98.2203 177.955 102.283 189.205 102.269 189.171 107.081 199.921 107.066 199.89 112.504 210.077 112.485 210.045 118.547 219.607 118.525 219.575 125.087 228.325 125.06 228.291 132.122 236.166 132.093 236.136 139.53 243.136 139.49 243.102 147.24 248.977 147.191 248.944 155.254 253.694 155.197 253.665 163.384 257.165 163.314 257.141 171.689 259.329 171.611 259.315 173.407 259.491 173.309 260.487 171.474 260.306 163.025 258.099 154.774 254.572 146.659 249.791 138.864 243.882 131.392 236.85 124.301 228.943 117.713 220.159 111.63 210.564 106.176 200.345 101.349 189.562 97.2739 178.279 93.9515 166.619 91.5062 154.706 90.0013 142.541 89.5004 130.333 89.0004 118.145 89.0038 118.186 87.5038 106.061 87.5102 106.101 85.0727 94.2255 85.0816 94.262 81.7691 82.637 81.7797 82.6698 77.7172 71.4198 77.7307 71.4533 72.9182 60.6408 72.9339 60.6729 67.4964 50.4854 67.516 50.519 61.4535 41.019 61.474 41.0486 54.9115 32.2361 54.9403 32.2713 47.8778 24.3963 47.9089 24.4281 40.4714 17.4906 40.5084 17.5219 32.7584 11.5844 32.8087 11.6183 24.7462 6.8683 24.8035 6.89725 16.616 3.39725 16.6861 3.42127 8.31114 1.23377 8.37189 1.24568 4.1219 0.683177 4.16513 0.686999-0.0223657 0.499499ZM172.374 255.889 180 260.563 171.686 263.859Z" fill="#70AD47" transform="matrix(-4.37114e-08 1 1 4.37114e-08 327.5 71.5001)"/><path d="M425.5 154.167C425.5 152.694 426.694 151.5 428.167 151.5L460.833 151.5C462.306 151.5 463.5 152.694 463.5 154.167L463.5 164.833C463.5 166.306 462.306 167.5 460.833 167.5L428.167 167.5C426.694 167.5 425.5 166.306 425.5 164.833Z" stroke="#70AD47" stroke-miterlimit="8" fill="#E2F0D9" fill-rule="evenodd"/><text fill="#7F7F7F" font-family="Calibri,Calibri_MSFontService,sans-serif" font-style="italic" font-weight="400" font-size="11" transform="translate(436.597 163)">has</text><path d="M0.0654692-0.495695 3.43511-0.0506488 6.84754 1.23706 10.2351 3.34627 13.537 6.20372 16.8215 9.80404 20.099 14.09 23.2433 19.1209 26.3803 24.7675 29.5159 31.1015 32.5246 37.9963 35.4677 45.5107 38.4106 53.5879 41.1649 62.1639 43.918 71.2992 46.5458 80.8717 49.1107 90.8811 51.5505 101.329 53.8654 112.215 58.1178 134.977 61.9326 159.054 65.1219 184.194 67.6857 210.207 69.6242 236.846 70.8123 263.923 71.0957 284.515 70.0958 284.528 69.8125 263.944 69.813 263.959 68.6255 236.897 68.6263 236.911 66.6888 210.286 66.6899 210.299 64.1274 184.299 64.129 184.313 60.9415 159.188 60.9437 159.203 57.1312 135.141 57.1335 135.154 52.8835 112.404 52.8859 112.416 50.5734 101.541 50.5756 101.551 48.1381 91.1137 48.1406 91.1241 45.5781 81.1241 45.5803 81.1324 42.9553 71.5699 42.9588 71.5818 40.2088 62.4568 40.2114 62.4654 37.4614 53.9029 37.4677 53.9212 34.5302 45.8587 34.5344 45.8698 31.5969 38.3698 31.6042 38.3875 28.6042 31.5125 28.6144 31.5343 25.4894 25.2218 25.5004 25.2428 22.3754 19.6178 22.3885 19.64 19.2635 14.64 19.2903 14.6787 16.0403 10.4287 16.0681 10.462 12.8181 6.89948 12.8603 6.94058 9.61031 4.12808 9.67322 4.17445 6.36072 2.11195 6.44847 2.1553 3.13597 0.905301 3.24703 0.933195-0.0654692 0.495695ZM74.577 283.133 70.6875 291.187 66.5778 283.243Z" fill="#4472C4" transform="matrix(-4.37114e-08 -1 -1 4.37114e-08 638.649 125.174)"/><path d="M498.5 69.1668C498.5 67.694 499.694 66.5001 501.167 66.5001L552.833 66.5001C554.306 66.5001 555.5 67.694 555.5 69.1668L555.5 79.8333C555.5 81.3061 554.306 82.5001 552.833 82.5001L501.167 82.5001C499.694 82.5001 498.5 81.3061 498.5 79.8333Z" stroke="#4472C4" stroke-miterlimit="8" fill="#DAE3F3" fill-rule="evenodd"/><text fill="#7F7F7F" font-family="Calibri,Calibri_MSFontService,sans-serif" font-style="italic" font-weight="400" font-size="11" transform="translate(512.718 77)">covers</text><path d="M597.622 131.586 597.372 130.148 597.413 130.278 596.726 128.841 596.79 128.942 595.665 127.567 595.714 127.618 594.151 126.181 594.198 126.219 592.198 124.781 592.239 124.808 589.864 123.433 589.891 123.447 587.141 122.072 587.174 122.087 583.987 120.775 584.005 120.782 576.692 118.094 576.725 118.105 568.1 115.605 568.122 115.611 558.309 113.236 558.326 113.24 547.451 110.99 547.466 110.993 535.591 108.93 535.604 108.932 522.979 107.057 522.992 107.059 509.617 105.434 509.628 105.435 495.628 104.06 495.638 104.061 481.201 102.936 481.212 102.937 466.462 102.124 466.478 102.125 436.291 101.437 436.319 101.437 428.756 101.687 428.785 101.686 421.222 102.373 421.255 102.369 413.692 103.557 413.72 103.551 406.22 105.176 406.248 105.169 398.811 107.232 398.838 107.224 391.463 109.724 391.486 109.715 384.236 112.59 384.258 112.581 377.071 115.831 377.104 115.814 363.167 123.439 363.206 123.415 349.831 132.415 349.865 132.39 337.178 142.577 337.21 142.549 325.398 153.861 325.426 153.832 314.551 166.082 314.578 166.049 304.766 179.236 304.789 179.202 296.164 193.077 296.186 193.037 288.874 207.599 288.887 207.572 285.699 215.01 285.709 214.983 282.959 222.546 282.967 222.524 280.592 230.149 280.599 230.125 278.599 237.875 278.605 237.848 277.042 245.661 277.047 245.634 275.922 253.446 275.925 253.415 275.205 262.501 274.208 262.422 274.93 253.32 276.059 245.478 277.627 237.639 279.633 229.863 282.016 222.215 284.774 214.629 287.973 207.164 295.303 192.568 303.951 178.656 313.789 165.434 324.692 153.153 336.534 141.811 349.255 131.597 362.667 122.572 376.641 114.927 383.857 111.665 391.129 108.781 398.53 106.272 405.995 104.202 413.523 102.571 421.116 101.379 428.709 100.688 436.299 100.437 466.509 101.125 481.273 101.939 495.721 103.065 509.732 104.441 523.119 106.067 535.757 107.944 547.645 110.009 558.536 112.262 568.368 114.642 577.021 117.15 584.359 119.847 587.572 121.17 590.352 122.56 592.761 123.955 594.806 125.424 596.417 126.906 597.602 128.355 598.345 129.909 598.607 131.414ZM278.748 261.26 274.49 269.125 270.752 260.999Z" fill="#4472C4"/><path d="M403.5 95.1668C403.5 93.694 404.694 92.5001 406.167 92.5001L458.833 92.5001C460.306 92.5001 461.5 93.694 461.5 95.1668L461.5 105.833C461.5 107.306 460.306 108.5 458.833 108.5L406.167 108.5C404.694 108.5 403.5 107.306 403.5 105.833Z" stroke="#4472C4" stroke-miterlimit="8" fill="#DAE3F3" fill-rule="evenodd"/><text fill="#7F7F7F" font-family="Calibri,Calibri_MSFontService,sans-serif" font-style="italic" font-weight="400" font-size="11" transform="translate(417.844 104)">covers</text><path d="M0.0206923-0.499572 10.601-0.0613345 21.1366 1.13019 31.5466 3.07424 41.6423 5.70789 51.424 8.96844 60.768 12.7939 69.6743 17.1843 77.9556 22.0151 85.614 27.288 92.4597 32.9404 98.5568 38.9119 103.717 45.2047 107.877 51.634 110.908 58.2631 112.868 65.0315 113.498 71.8312 114.061 78.5835 114.048 78.5069 115.673 85.1944 115.65 85.123 118.338 91.6855 118.311 91.6311 121.874 98.0061 121.845 97.9605 126.283 104.211 126.25 104.169 131.5 110.106 131.467 110.073 137.467 115.698 137.437 115.672 144 120.922 143.966 120.897 151.153 125.71 151.122 125.69 158.81 130.065 158.775 130.047 166.9 133.86 166.866 133.845 175.366 137.095 175.331 137.084 184.081 139.709 184.043 139.699 193.043 141.636 193.002 141.629 202.127 142.817 202.086 142.813 204.615 142.933 204.567 143.932 202.018 143.811 192.852 142.618 183.813 140.672 175.026 138.036 166.492 134.773 158.332 130.944 150.612 126.551 143.392 121.716 136.797 116.441 130.766 110.786 125.483 104.811 121.014 98.5175 117.424 92.0925 114.711 85.4671 113.067 78.7053 112.502 71.9165 112.502 71.9211 111.877 65.1711 111.895 65.2641 109.957 58.5766 109.983 58.6454 106.983 52.0829 107.018 52.1466 102.893 45.7716 102.926 45.817 97.8009 39.567 97.8376 39.6072 91.7751 33.6697 91.8066 33.6981 84.9941 28.0731 85.0289 28.0993 77.4039 22.8493 77.4356 22.8694 69.1856 18.0569 69.2164 18.0735 60.3414 13.6985 60.3731 13.7127 51.0606 9.90022 51.0919 9.91184 41.3419 6.66184 41.3738 6.67131 31.3113 4.04631 31.3457 4.054 20.9707 2.1165 21.0063 2.12183 10.5063 0.934333 10.5418 0.937072-0.0206923 0.499572ZM203.449 139.374 211.25 143.75 203.069 147.365Z" fill="#4472C4" transform="matrix(-4.37114e-08 1 1 4.37114e-08 678.5 163.5)"/><path d="M806.5 343.167C806.5 341.694 807.694 340.5 809.167 340.5L861.833 340.5C863.306 340.5 864.5 341.694 864.5 343.167L864.5 353.833C864.5 355.306 863.306 356.5 861.833 356.5L809.167 356.5C807.694 356.5 806.5 355.306 806.5 353.833Z" stroke="#4472C4" stroke-miterlimit="8" fill="#DAE3F3" fill-rule="evenodd"/><text fill="#7F7F7F" font-family="Calibri,Calibri_MSFontService,sans-serif" font-style="italic" font-weight="400" font-size="11" transform="translate(821.315 351)">covers</text><path d="M901.5 342.167C901.5 340.694 902.694 339.5 904.167 339.5L956.833 339.5C958.306 339.5 959.5 340.694 959.5 342.167L959.5 352.833C959.5 354.306 958.306 355.5 956.833 355.5L904.167 355.5C902.694 355.5 901.5 354.306 901.5 352.833Z" stroke="#4472C4" stroke-miterlimit="8" fill="#DAE3F3" fill-rule="evenodd"/><text fill="#7F7F7F" font-family="Calibri,Calibri_MSFontService,sans-serif" font-style="italic" font-weight="400" font-size="11" transform="translate(916.011 351)">covers</text></g></svg>