<svg width="1280" height="720" xmlns="http://www.w3.org/2000/svg" xmlns:xlink="http://www.w3.org/1999/xlink" overflow="hidden"><defs><clipPath id="clip0"><path d="M0 0 1280 0 1280 720 0 720Z" fill-rule="evenodd" clip-rule="evenodd"/></clipPath></defs><g clip-path="url(#clip0)"><rect x="0" y="0" width="1280" height="720" fill="#FFFFFF"/><path d="M692 271C692 257.745 702.745 247 716 247 729.255 247 740 257.745 740 271 740 284.255 729.255 295 716 295 702.745 295 692 284.255 692 271Z" stroke="#4472C4" stroke-width="2" stroke-miterlimit="8" fill="#4472C4" fill-rule="evenodd"/><text font-family="Calibri,Calibri_MSFontService,sans-serif" font-weight="700" font-size="16" transform="translate(694.924 241)">Insurer</text><path d="M833.157 150.089C834.374 144.929 839.543 141.731 844.704 142.948 849.864 144.164 853.061 149.334 851.845 154.494 850.629 159.655 845.459 162.852 840.299 161.636 835.138 160.419 831.941 155.25 833.157 150.089Z" stroke="#4472C4" stroke-width="1.33333" stroke-miterlimit="8" fill="#4472C4" fill-rule="evenodd"/><text font-family="Calibri,Calibri_MSFontService,sans-serif" font-style="italic" font-weight="400" font-size="13" transform="translate(845.855 139)">PPO</text><path d="M839.194 243.839C837.745 238.739 840.704 233.429 845.804 231.98 850.904 230.531 856.214 233.491 857.663 238.591 859.112 243.691 856.152 249 851.052 250.449 845.952 251.898 840.643 248.939 839.194 243.839Z" stroke="#4472C4" stroke-width="1.33333" stroke-miterlimit="8" fill="#4472C4" fill-rule="evenodd"/><path d="M790.5 322C790.5 316.753 794.753 312.5 800 312.5 805.247 312.5 809.5 316.753 809.5 322 809.5 327.247 805.247 331.5 800 331.5 794.753 331.5 790.5 327.247 790.5 322Z" stroke="#4472C4" stroke-miterlimit="8" fill="#4472C4" fill-rule="evenodd"/><text font-family="Calibri,Calibri_MSFontService,sans-serif" font-style="italic" font-weight="400" font-size="13" transform="translate(850.408 229)">POS<tspan x="-49.1766" y="80">HMO</tspan></text><path d="M0 0 185.266 108.679" stroke="#4472C4" stroke-miterlimit="8" fill="none" fill-rule="evenodd" transform="matrix(1 0 0 -1 740.5 271.179)"/><path d="M0 0 94.1451 113.326" stroke="#4472C4" stroke-miterlimit="8" fill="none" fill-rule="evenodd" transform="matrix(1 0 0 -1 740.5 270.826)"/><path d="M0 0 99.0024 26.8288" stroke="#4472C4" stroke-miterlimit="8" fill="none" fill-rule="evenodd" transform="matrix(1 0 0 -1 740.5 271.329)"/><path d="M740.5 271.5 789.999 322.199" stroke="#4472C4" stroke-miterlimit="8" fill="none" fill-rule="evenodd"/><path d="M0 0 72.9208 37.129" stroke="#4472C4" stroke-miterlimit="8" fill="none" fill-rule="evenodd" transform="matrix(1 0 0 -1 940.5 152.629)"/><path d="M0 0 30.2407 61.4057" stroke="#4472C4" stroke-miterlimit="8" fill="none" fill-rule="evenodd" transform="matrix(1 0 0 -1 1030.5 106.906)"/><path d="M0 0 67.0697 36.7869" stroke="#4472C4" stroke-miterlimit="8" fill="none" fill-rule="evenodd" transform="matrix(1 0 0 -1 1030.5 107.287)"/><path d="M1030.5 107.5 1106.86 110.389" stroke="#4472C4" stroke-miterlimit="8" fill="none" fill-rule="evenodd"/><path d="M0 0 15.6754 35.2773" stroke="#4472C4" stroke-miterlimit="8" fill="none" fill-rule="evenodd" transform="matrix(1 0 0 -1 940.5 152.777)"/><path d="M494.285 569.685C493.674 556.445 503.912 545.216 517.153 544.604 530.394 543.994 541.623 554.232 542.234 567.473 542.845 580.713 532.606 591.943 519.366 592.554 506.125 593.164 494.896 582.926 494.285 569.685Z" stroke="#FFC000" stroke-width="2" stroke-miterlimit="8" fill="#FFC000" fill-rule="evenodd"/><path d="M758 513C758 499.745 768.745 489 782 489 795.255 489 806 499.745 806 513 806 526.255 795.255 537 782 537 768.745 537 758 526.255 758 513Z" stroke="#00B050" stroke-width="2" stroke-miterlimit="8" fill="#00B050" fill-rule="evenodd"/><path d="M925.458 161.989C924.339 156.806 927.634 151.698 932.817 150.58 938 149.462 943.107 152.757 944.226 157.939 945.344 163.122 942.049 168.23 936.866 169.348 931.684 170.466 926.576 167.171 925.458 161.989Z" stroke="#4472C4" stroke-width="1.33333" stroke-miterlimit="8" fill="#4472C4" fill-rule="evenodd"/><path d="M953.932 110.071C955.246 107.769 958.178 106.968 960.48 108.282 962.782 109.597 963.583 112.528 962.269 114.831 960.955 117.133 958.023 117.934 955.721 116.62 953.419 115.305 952.618 112.374 953.932 110.071Z" stroke="#4472C4" stroke-width="1.33333" stroke-miterlimit="8" fill="#4472C4" fill-rule="evenodd"/><text font-family="Calibri,Calibri_MSFontService,sans-serif" font-style="italic" font-weight="700" font-size="13" transform="translate(947.444 174)">Insurance <tspan x="0" y="16">Company</tspan><tspan font-weight="400" font-size="12" x="0.118652" y="-72">Private</tspan></text><path d="M1012.97 114.768C1010.77 109.94 1012.91 104.25 1017.74 102.058 1022.57 99.8668 1028.26 102.004 1030.45 106.832 1032.64 111.66 1030.5 117.35 1025.68 119.541 1020.85 121.733 1015.16 119.596 1012.97 114.768Z" stroke="#4472C4" stroke-width="1.33333" stroke-miterlimit="8" fill="#4472C4" fill-rule="evenodd"/><path d="M1058.85 42.2442C1058.51 39.6159 1060.36 37.205 1062.99 36.8594 1065.62 36.5139 1068.03 38.3644 1068.37 40.9927 1068.72 43.6211 1066.87 46.0319 1064.24 46.3775 1061.61 46.7231 1059.2 44.8726 1058.85 42.2442Z" stroke="#4472C4" stroke-width="1.33333" stroke-miterlimit="8" fill="#4472C4" fill-rule="evenodd"/><path d="M1097.52 70.0449C1096.59 67.5631 1097.84 64.7958 1100.33 63.864 1102.81 62.9322 1105.57 64.1887 1106.51 66.6705 1107.44 69.1523 1106.18 71.9196 1103.7 72.8514 1101.22 73.7832 1098.45 72.5267 1097.52 70.0449Z" stroke="#4472C4" stroke-width="1.33333" stroke-miterlimit="8" fill="#4472C4" fill-rule="evenodd"/><path d="M1108.28 106.354C1110.19 104.516 1113.23 104.574 1115.07 106.484 1116.91 108.394 1116.85 111.432 1114.94 113.271 1113.03 115.109 1109.99 115.051 1108.15 113.141 1106.32 111.232 1106.37 108.193 1108.28 106.354Z" stroke="#4472C4" stroke-width="1.33333" stroke-miterlimit="8" fill="#4472C4" fill-rule="evenodd"/><text font-family="Calibri,Calibri_MSFontService,sans-serif" font-style="italic" font-weight="700" font-size="13" transform="translate(1013.68 137)">Government<tspan font-weight="400" font-size="12" x="48.9069" y="-104">Medicare</tspan><tspan font-weight="400" font-size="12" x="95.2068" y="-75">Medicaid</tspan><tspan font-weight="400" font-size="12" x="106.22" y="-24">Tricare</tspan></text><path d="M267.908 317.744C268.519 304.503 279.748 294.265 292.988 294.875 306.229 295.486 316.468 306.715 315.857 319.956 315.246 333.197 304.017 343.435 290.777 342.824 277.536 342.214 267.297 330.985 267.908 317.744Z" stroke="#ED7D31" stroke-width="2" stroke-miterlimit="8" fill="#ED7D31" fill-rule="evenodd"/><text font-family="Calibri,Calibri_MSFontService,sans-serif" font-weight="700" font-size="16" transform="translate(216.428 308)">Insured<tspan x="246.043" y="232">Provider</tspan><tspan x="543.343" y="249">Health </tspan><tspan x="550.516" y="268">Care </tspan><tspan x="538.523" y="287">Services</tspan></text><path d="M0 0 59.3848 54.1992" stroke="#00B050" stroke-miterlimit="8" fill="none" fill-rule="evenodd" transform="matrix(1 0 0 -1 806.5 513.699)"/><path d="M865.24 458.608C861.254 455.112 860.858 449.046 864.355 445.061 867.851 441.075 873.917 440.679 877.902 444.175 881.888 447.672 882.284 453.737 878.787 457.723 875.291 461.708 869.225 462.105 865.24 458.608Z" stroke="#00B050" stroke-width="1.33333" stroke-miterlimit="8" fill="#00B050" fill-rule="evenodd"/><path d="M946.64 484.221C949.988 480.11 956.035 479.491 960.146 482.839 964.257 486.186 964.877 492.233 961.529 496.344 958.181 500.456 952.135 501.075 948.023 497.727 943.912 494.38 943.293 488.333 946.64 484.221Z" stroke="#00B050" stroke-width="1.33333" stroke-miterlimit="8" fill="#00B050" fill-rule="evenodd"/><path d="M976.123 629.147C978.363 624.342 984.075 622.263 988.88 624.504 993.686 626.744 995.765 632.456 993.524 637.261 991.283 642.067 985.571 644.146 980.766 641.905 975.961 639.664 973.882 633.952 976.123 629.147Z" stroke="#00B050" stroke-width="1.33333" stroke-miterlimit="8" fill="#00B050" fill-rule="evenodd"/><path d="M0 0 138.679 21.5465" stroke="#00B050" stroke-miterlimit="8" fill="none" fill-rule="evenodd" transform="matrix(1 0 0 -1 806.5 513.047)"/><path d="M806.5 513.5 976.768 629.84" stroke="#00B050" stroke-miterlimit="8" fill="none" fill-rule="evenodd"/><path d="M1090.56 611.695C1092.29 609.69 1095.32 609.472 1097.33 611.208 1099.33 612.943 1099.55 615.974 1097.81 617.978 1096.08 619.983 1093.05 620.201 1091.04 618.465 1089.04 616.73 1088.82 613.699 1090.56 611.695Z" stroke="#00B050" stroke-width="1.33333" stroke-miterlimit="8" fill="#00B050" fill-rule="evenodd"/><path d="M1089.44 650.203C1089.82 647.58 1092.26 645.768 1094.89 646.156 1097.51 646.543 1099.32 648.983 1098.93 651.605 1098.55 654.228 1096.11 656.04 1093.48 655.653 1090.86 655.265 1089.05 652.826 1089.44 650.203Z" stroke="#00B050" stroke-width="1.33333" stroke-miterlimit="8" fill="#00B050" fill-rule="evenodd"/><path d="M1091.51 682.987C1093.71 681.509 1096.69 682.096 1098.17 684.297 1099.65 686.498 1099.06 689.48 1096.86 690.957 1094.66 692.435 1091.68 691.848 1090.2 689.647 1088.72 687.446 1089.31 684.464 1091.51 682.987Z" stroke="#00B050" stroke-width="1.33333" stroke-miterlimit="8" fill="#00B050" fill-rule="evenodd"/><path d="M1053.65 391.872C1054.01 389.245 1056.43 387.41 1059.06 387.772 1061.68 388.134 1063.52 390.557 1063.16 393.183 1062.8 395.809 1060.37 397.644 1057.75 397.282 1055.12 396.92 1053.29 394.498 1053.65 391.872Z" stroke="#00B050" stroke-width="1.33333" stroke-miterlimit="8" fill="#00B050" fill-rule="evenodd"/><path d="M1055.37 435.574C1056.69 433.272 1059.62 432.471 1061.92 433.785 1064.22 435.099 1065.02 438.031 1063.71 440.333 1062.39 442.636 1059.46 443.437 1057.16 442.122 1054.86 440.808 1054.06 437.876 1055.37 435.574Z" stroke="#00B050" stroke-width="1.33333" stroke-miterlimit="8" fill="#00B050" fill-rule="evenodd"/><path d="M1055.37 476.095C1056.69 473.792 1059.62 472.991 1061.92 474.306 1064.22 475.62 1065.02 478.552 1063.71 480.854 1062.39 483.156 1059.46 483.957 1057.16 482.643 1054.86 481.329 1054.06 478.397 1055.37 476.095Z" stroke="#00B050" stroke-width="1.33333" stroke-miterlimit="8" fill="#00B050" fill-rule="evenodd"/><path d="M1055.37 516.357C1056.69 514.055 1059.62 513.254 1061.92 514.568 1064.22 515.882 1065.02 518.814 1063.71 521.116 1062.39 523.418 1059.46 524.219 1057.16 522.905 1054.86 521.591 1054.06 518.659 1055.37 516.357Z" stroke="#00B050" stroke-width="1.33333" stroke-miterlimit="8" fill="#00B050" fill-rule="evenodd"/><path d="M1055.37 551.846C1056.69 549.544 1059.62 548.743 1061.92 550.057 1064.22 551.371 1065.02 554.303 1063.71 556.605 1062.39 558.907 1059.46 559.708 1057.16 558.394 1054.86 557.08 1054.06 554.148 1055.37 551.846Z" stroke="#00B050" stroke-width="1.33333" stroke-miterlimit="8" fill="#00B050" fill-rule="evenodd"/><text font-family="Calibri,Calibri_MSFontService,sans-serif" font-style="italic" font-weight="400" transform="translate(1073.66 388)">Lab &amp; Diag. Services<tspan x="0" y="33">Mental Health &amp; Substance </tspan><tspan x="0" y="48">abuse Mgmt.</tspan><tspan x="0" y="88">Pharmacy Benefit Mgmt.</tspan><tspan x="0" y="126">Wellness Programs</tspan><tspan x="2.0188" y="171">Care Advocacy Services</tspan></text><path d="M0 0 90.942 93.8791" stroke="#00B050" stroke-miterlimit="8" fill="none" fill-rule="evenodd" transform="matrix(1 0 0 -1 964.5 489.379)"/><path d="M0 0 91.2752 50.0862" stroke="#00B050" stroke-miterlimit="8" fill="none" fill-rule="evenodd" transform="matrix(1 0 0 -1 964.5 489.586)"/><path d="M0 0 91.2752 9.56567" stroke="#00B050" stroke-miterlimit="8" fill="none" fill-rule="evenodd" transform="matrix(1 0 0 -1 964.5 490.066)"/><path d="M964.5 489.5 1055.78 520.197" stroke="#00B050" stroke-miterlimit="8" fill="none" fill-rule="evenodd"/><path d="M964.5 489.5 1055.78 555.686" stroke="#00B050" stroke-miterlimit="8" fill="none" fill-rule="evenodd"/><text font-family="Calibri,Calibri_MSFontService,sans-serif" font-style="italic" font-weight="700" font-size="13" transform="translate(936.409 521)">Tech. <tspan x="0" y="16">Enabled </tspan><tspan x="0" y="32">Services</tspan><tspan font-weight="400" font-size="12" x="171.895" y="97">Health Information Exchange</tspan><tspan font-weight="400" font-size="12" x="171.895" y="134">IT Solutions</tspan><tspan font-weight="400" font-size="12" x="171.895" y="171">Financial Solutions</tspan></text><path d="M0 0 95.8733 22.0804" stroke="#00B050" stroke-miterlimit="8" fill="none" fill-rule="evenodd" transform="matrix(1 0 0 -1 994.5 637.58)"/><path d="M994.5 637.5 1090.41 650.442" stroke="#00B050" stroke-miterlimit="8" fill="none" fill-rule="evenodd"/><path d="M994.5 637.5 1090.45 686.284" stroke="#00B050" stroke-miterlimit="8" fill="none" fill-rule="evenodd"/><text font-family="Calibri,Calibri_MSFontService,sans-serif" font-style="italic" font-weight="700" font-size="13" transform="translate(958.458 663)">Technology <tspan x="0" y="16">as Product</tspan><tspan x="-87.2635" y="-227">Consulting</tspan></text><path d="M512.351 682.668C507.823 679.909 506.388 674.003 509.147 669.475 511.905 664.947 517.812 663.512 522.34 666.271 526.867 669.029 528.302 674.936 525.544 679.464 522.785 683.992 516.878 685.426 512.351 682.668Z" stroke="#FFC000" stroke-width="1.33333" stroke-miterlimit="8" fill="#FFC000" fill-rule="evenodd"/><path d="M588.144 636.573C583.648 633.764 582.28 627.842 585.089 623.345 587.898 618.849 593.82 617.48 598.317 620.289 602.813 623.099 604.181 629.021 601.372 633.518 598.563 638.014 592.641 639.382 588.144 636.573Z" stroke="#FFC000" stroke-width="1.33333" stroke-miterlimit="8" fill="#FFC000" fill-rule="evenodd"/><path d="M450.756 647.697C445.638 646.313 442.611 641.042 443.995 635.924 445.379 630.806 450.65 627.779 455.768 629.163 460.886 630.547 463.913 635.818 462.529 640.936 461.145 646.054 455.874 649.081 450.756 647.697Z" stroke="#FFC000" stroke-width="1.33333" stroke-miterlimit="8" fill="#FFC000" fill-rule="evenodd"/><path d="M536.5 585.5 585.594 624.096" stroke="#FFC000" stroke-miterlimit="8" fill="none" fill-rule="evenodd"/><text font-family="Calibri,Calibri_MSFontService,sans-serif" font-style="italic" font-weight="700" font-size="13" transform="translate(575.812 656)">Nursing Care<tspan x="-84.8544" y="42">Hospital</tspan></text><path d="M0 0 4.28609 72.5869" stroke="#FFC000" stroke-miterlimit="8" fill="none" fill-rule="evenodd" transform="matrix(-1 -8.74228e-08 -8.74228e-08 1 519.786 593.5)"/><text font-family="Calibri,Calibri_MSFontService,sans-serif" font-style="italic" font-weight="700" font-size="13" transform="translate(433.428 661)">Facility</text><path d="M0 0 46.3212 42.849" stroke="#FFC000" stroke-miterlimit="8" fill="none" fill-rule="evenodd" transform="matrix(-1 -8.74228e-08 -8.74228e-08 1 502.821 586.5)"/><path d="M264.038 442.017C265.176 436.838 270.296 433.562 275.475 434.7 280.653 435.837 283.929 440.957 282.791 446.136 281.654 451.314 276.534 454.59 271.355 453.453 266.177 452.315 262.901 447.195 264.038 442.017Z" stroke="#ED7D31" stroke-width="1.33333" stroke-miterlimit="8" fill="#ED7D31" fill-rule="evenodd"/><path d="M80.8628 539.604C83.7455 535.154 89.6896 533.884 94.1394 536.767 98.5892 539.649 99.8596 545.593 96.977 550.043 94.0943 554.493 88.1502 555.763 83.7004 552.881 79.2506 549.998 77.9802 544.054 80.8628 539.604Z" stroke="#ED7D31" stroke-width="1.33333" stroke-miterlimit="8" fill="#ED7D31" fill-rule="evenodd"/><path d="M151.633 494.959C148.607 490.606 149.683 484.623 154.037 481.597 158.39 478.571 164.372 479.647 167.399 484 170.425 488.354 169.349 494.336 164.995 497.363 160.642 500.389 154.66 499.313 151.633 494.959Z" stroke="#ED7D31" stroke-width="1.33333" stroke-miterlimit="8" fill="#ED7D31" fill-rule="evenodd"/><path d="M126.865 390.312C127.721 387.803 130.449 386.463 132.958 387.32 135.467 388.176 136.807 390.903 135.951 393.412 135.095 395.921 132.367 397.261 129.858 396.405 127.349 395.549 126.009 392.821 126.865 390.312Z" stroke="#ED7D31" stroke-width="1.33333" stroke-miterlimit="8" fill="#ED7D31" fill-rule="evenodd"/><path d="M0 0 132.192 72.002" stroke="#ED7D31" stroke-miterlimit="8" fill="none" fill-rule="evenodd" transform="matrix(1 0 0 -1 136.5 390.502)"/><text font-family="Calibri,Calibri_MSFontService,sans-serif" font-style="italic" font-weight="400" transform="translate(86.5738 391)">Policy <tspan x="-1.42" y="15">holder</tspan></text><path d="M136.5 393.5 268.79 436.077" stroke="#ED7D31" stroke-miterlimit="8" fill="none" fill-rule="evenodd"/><path d="M0 0 40.186 141.457" stroke="#ED7D31" stroke-miterlimit="8" fill="none" fill-rule="evenodd" transform="matrix(1 0 0 -1 87.5001 535.957)"/><path d="M130.5 396.5 154.679 481.692" stroke="#ED7D31" stroke-miterlimit="8" fill="none" fill-rule="evenodd"/><path d="M329.792 587.74C325.588 584.51 324.798 578.483 328.028 574.278 331.258 570.074 337.285 569.284 341.489 572.514 345.694 575.744 346.483 581.771 343.253 585.975 340.023 590.18 333.997 590.97 329.792 587.74Z" stroke="#ED7D31" stroke-width="1.33333" stroke-miterlimit="8" fill="#ED7D31" fill-rule="evenodd"/><path d="M97.5001 550.5 326.645 581.831" stroke="#ED7D31" stroke-miterlimit="8" fill="none" fill-rule="evenodd"/><path d="M279.5 452.5 335.304 570.945" stroke="#ED7D31" stroke-miterlimit="8" fill="none" fill-rule="evenodd"/><path d="M328.532 574.416 165.5 497.5" stroke="#ED7D31" stroke-miterlimit="8" fill="none" fill-rule="evenodd"/><path d="M0 0 149.126 9.19391" stroke="#7F7F7F" stroke-miterlimit="8" fill="none" fill-rule="evenodd" transform="matrix(-1 -8.74228e-08 -8.74228e-08 1 494.626 570.5)"/><text font-family="Calibri,Calibri_MSFontService,sans-serif" font-style="italic" font-weight="700" font-size="13" transform="translate(45.9476 574)">Deductible<tspan x="241.596" y="-133">Copayment</tspan><tspan x="255.001" y="30">Out of pocket</tspan><tspan x="112.539" y="-98">Coinsurance</tspan></text><path d="M501.586 248.937C502.803 243.776 507.972 240.579 513.133 241.796 518.293 243.012 521.49 248.181 520.274 253.342 519.058 258.503 513.888 261.7 508.728 260.483 503.567 259.267 500.37 254.097 501.586 248.937Z" stroke="#4472C4" stroke-width="1.33333" stroke-miterlimit="8" fill="#4472C4" fill-rule="evenodd"/><path d="M607.5 367C607.5 361.753 611.753 357.5 617 357.5 622.247 357.5 626.5 361.753 626.5 367 626.5 372.247 622.247 376.5 617 376.5 611.753 376.5 607.5 372.247 607.5 367Z" stroke="#4472C4" stroke-miterlimit="8" fill="#4472C4" fill-rule="evenodd"/><path d="M375.449 151.713C368.683 140.315 372.437 125.59 383.834 118.824 395.232 112.057 409.957 115.811 416.723 127.209 423.49 138.606 419.736 153.331 408.338 160.098 396.941 166.864 382.216 163.11 375.449 151.713Z" stroke="#92D050" stroke-width="2" stroke-miterlimit="8" fill="#92D050" fill-rule="evenodd"/><path d="M335.208 65.0769C337.747 64.3147 340.424 65.755 341.186 68.294 341.948 70.833 340.508 73.5093 337.969 74.2715 335.43 75.0338 332.754 73.5934 331.991 71.0544 331.229 68.5154 332.669 65.8392 335.208 65.0769Z" stroke="#92D050" stroke-width="1.33333" stroke-miterlimit="8" fill="#92D050" fill-rule="evenodd"/><path d="M317.002 175.728C317.675 173.163 320.299 171.63 322.863 172.303 325.427 172.976 326.96 175.6 326.288 178.164 325.615 180.728 322.991 182.261 320.427 181.589 317.862 180.916 316.329 178.292 317.002 175.728Z" stroke="#92D050" stroke-width="1.33333" stroke-miterlimit="8" fill="#92D050" fill-rule="evenodd"/><path d="M463.681 53.4772C465.53 55.3771 465.489 58.416 463.589 60.2648 461.689 62.1135 458.65 62.0721 456.801 60.1722 454.952 58.2723 454.994 55.2334 456.894 53.3846 458.794 51.5358 461.833 51.5773 463.681 53.4772Z" stroke="#92D050" stroke-width="1.33333" stroke-miterlimit="8" fill="#92D050" fill-rule="evenodd"/><path d="M484.57 139.095C485.143 141.683 483.51 144.246 480.922 144.819 478.333 145.392 475.77 143.759 475.197 141.171 474.624 138.583 476.257 136.02 478.846 135.446 481.434 134.873 483.997 136.507 484.57 139.095Z" stroke="#92D050" stroke-width="1.33333" stroke-miterlimit="8" fill="#92D050" fill-rule="evenodd"/><path d="M477.487 97.0939C478.576 99.5108 477.5 102.353 475.083 103.442 472.666 104.532 469.824 103.455 468.735 101.039 467.646 98.6217 468.722 95.7794 471.139 94.6902 473.556 93.6009 476.398 94.6771 477.487 97.0939Z" stroke="#92D050" stroke-width="1.33333" stroke-miterlimit="8" fill="#92D050" fill-rule="evenodd"/><path d="M399.5 85.5001C402.261 85.5001 404.5 87.5148 404.5 90.0001 404.5 92.4854 402.261 94.5001 399.5 94.5001 396.739 94.5001 394.5 92.4854 394.5 90.0001 394.5 87.5148 396.739 85.5001 399.5 85.5001Z" stroke="#92D050" stroke-miterlimit="8" fill="#92D050" fill-rule="evenodd"/><path d="M307.52 90.0855C309.907 88.9336 312.777 89.9354 313.929 92.3231 315.08 94.7107 314.079 97.58 311.691 98.7319 309.303 99.8838 306.434 98.882 305.282 96.4944 304.13 94.1067 305.132 91.2374 307.52 90.0855Z" stroke="#92D050" stroke-width="1.33333" stroke-miterlimit="8" fill="#92D050" fill-rule="evenodd"/><path d="M304.03 137.089C303.389 134.517 304.954 131.912 307.526 131.27 310.098 130.629 312.704 132.194 313.345 134.766 313.987 137.338 312.421 139.944 309.849 140.585 307.277 141.227 304.672 139.661 304.03 137.089Z" stroke="#92D050" stroke-width="1.33333" stroke-miterlimit="8" fill="#92D050" fill-rule="evenodd"/><path d="M0 0 223.425 38.0368" stroke="#7F7F7F" stroke-miterlimit="8" fill="none" fill-rule="evenodd" transform="matrix(1 0 0 -1 534.5 551.537)"/><text font-family="Calibri,Calibri_MSFontService,sans-serif" font-style="italic" font-weight="700" font-size="13" transform="translate(630.733 370)">Benefits<tspan x="-107.932" y="-108">Policy</tspan></text><path d="M557.735 367.544C559.023 365.227 561.946 364.394 564.263 365.682 566.58 366.97 567.414 369.893 566.125 372.21 564.837 374.526 561.914 375.36 559.598 374.072 557.281 372.784 556.447 369.861 557.735 367.544Z" stroke="#4472C4" stroke-width="1.33333" stroke-miterlimit="8" fill="#4472C4" fill-rule="evenodd"/><text font-family="Calibri,Calibri_MSFontService,sans-serif" font-style="italic" font-weight="400" transform="translate(513.807 363)">Amount <tspan x="2.5" y="15">Insurer </tspan><tspan x="8.33331" y="29">Pays</tspan></text><path d="M0 0 40.1639 2.31832" stroke="#4472C4" stroke-miterlimit="8" fill="none" fill-rule="evenodd" transform="matrix(1 0 0 -1 567.5 368.818)"/><path d="M509.5 260.5 617.082 356.658" stroke="#4472C4" stroke-miterlimit="8" fill="none" fill-rule="evenodd"/><path d="M0 0 99.1567 168.763" stroke="#4472C4" stroke-miterlimit="8" fill="none" fill-rule="evenodd" transform="matrix(1 0 0 -1 517.5 545.263)"/><path d="M0 0 191.969 53.7425" stroke="#7F7F7F" stroke-miterlimit="8" fill="none" fill-rule="evenodd" transform="matrix(1 0 0 -1 310.5 303.243)"/><path d="M519.5 246.5 692.597 271.078" stroke="#4472C4" stroke-miterlimit="8" fill="none" fill-rule="evenodd"/><path d="M716.5 295.5 782.164 489.64" stroke="#7F7F7F" stroke-miterlimit="8" fill="none" fill-rule="evenodd"/><path d="M949.543 294.667C951.887 289.912 957.642 287.957 962.398 290.301 967.154 292.645 969.109 298.4 966.765 303.156 964.42 307.912 958.665 309.867 953.909 307.523 949.154 305.178 947.199 299.423 949.543 294.667Z" stroke="#4472C4" stroke-width="1.33333" stroke-miterlimit="8" fill="#4472C4" fill-rule="evenodd"/><text font-family="Calibri,Calibri_MSFontService,sans-serif" font-style="italic" font-weight="700" font-size="13" transform="translate(952.76 281)">Premium</text><path d="M1084.3 243.448C1087.81 239.482 1093.88 239.12 1097.85 242.638 1101.81 246.157 1102.18 252.225 1098.66 256.191 1095.14 260.157 1089.07 260.519 1085.11 257 1081.14 253.482 1080.78 247.414 1084.3 243.448Z" stroke="#C00000" stroke-width="1.33333" stroke-miterlimit="8" fill="#C00000" fill-rule="evenodd"/><path d="M1083.07 305.124C1086.05 300.742 1092.02 299.61 1096.4 302.595 1100.79 305.581 1101.92 311.553 1098.93 315.934 1095.95 320.316 1089.98 321.448 1085.59 318.463 1081.21 315.478 1080.08 309.506 1083.07 305.124Z" stroke="#C00000" stroke-width="1.33333" stroke-miterlimit="8" fill="#C00000" fill-rule="evenodd"/><path d="M1158.15 261.415C1164.01 249.526 1178.39 244.638 1190.28 250.498 1202.17 256.358 1207.06 270.747 1201.2 282.636 1195.34 294.525 1180.95 299.412 1169.06 293.552 1157.17 287.692 1152.29 273.304 1158.15 261.415Z" stroke="#C00000" stroke-width="1.33333" stroke-miterlimit="8" fill="#C00000" fill-rule="evenodd"/><path d="M740.5 271.5 949.852 295.5" stroke="#4472C4" stroke-miterlimit="8" fill="none" fill-rule="evenodd"/><path d="M974.738 333.017C977.107 331.828 979.992 332.786 981.18 335.156 982.368 337.525 981.411 340.41 979.041 341.598 976.671 342.786 973.787 341.829 972.599 339.459 971.41 337.089 972.368 334.205 974.738 333.017Z" stroke="#4472C4" stroke-width="1.33333" stroke-miterlimit="8" fill="#4472C4" fill-rule="evenodd"/><path d="M974.997 333.515 961.5 308.5" stroke="#4472C4" stroke-miterlimit="8" fill="none" fill-rule="evenodd"/><text font-family="Calibri,Calibri_MSFontService,sans-serif" font-style="italic" font-weight="400" transform="translate(936.004 356)">Payment <tspan x="-1" y="15">for policy</tspan><tspan font-weight="700" font-size="13" x="154.039" y="-124">Employer</tspan><tspan font-weight="700" font-size="13" x="147.702" y="-23">Self</tspan><tspan font-style="normal" font-weight="700" font-size="16" x="272.46" y="-92">Plan </tspan><tspan font-style="normal" font-weight="700" font-size="16" x="272.46" y="-73">Sponsor</tspan></text><path d="M1101.5 249.5 1158.59 261.668" stroke="#C00000" stroke-miterlimit="8" fill="none" fill-rule="evenodd"/><path d="M0 0 56.5156 28.9967" stroke="#C00000" stroke-miterlimit="8" fill="none" fill-rule="evenodd" transform="matrix(1 0 0 -1 1100.5 309.497)"/><path d="M0 0 114.651 45.4322" stroke="#7F7F7F" stroke-miterlimit="8" fill="none" fill-rule="evenodd" transform="matrix(-1 -8.74228e-08 -8.74228e-08 1 1082.15 250.5)"/><path d="M1082.3 312.661 967.5 303.5" stroke="#7F7F7F" stroke-miterlimit="8" fill="none" fill-rule="evenodd"/><text font-family="Calibri,Calibri_MSFontService,sans-serif" font-style="italic" font-weight="400" transform="translate(240.434 191)">Nursing Services<tspan x="-0.917587" y="-51">Prescription</tspan><tspan x="-24.0725" y="-90">Physician Services</tspan><tspan x="-30.93" y="-130">Hospital Services &amp; Supplies</tspan><tspan x="130.68" y="-112">Anesthesia</tspan><tspan x="194.433" y="-142">Ambulance Services</tspan><tspan x="243.365" y="-94">Lab &amp; Diag.</tspan><tspan x="246.18" y="-50">Hospital Room &amp; board</tspan></text><path d="M408.5 160.5 506.042 243.377" stroke="#7F7F7F" stroke-miterlimit="8" fill="none" fill-rule="evenodd"/><path d="M0 0 49.6602 22.8112" stroke="#92D050" stroke-miterlimit="8" fill="none" fill-rule="evenodd" transform="matrix(-1 -8.74228e-08 -8.74228e-08 1 376.16 152.5)"/><path d="M0 0 59.485 1.23454" stroke="#92D050" stroke-miterlimit="8" fill="none" fill-rule="evenodd" transform="matrix(-1 -8.74228e-08 -8.74228e-08 1 372.985 134.5)"/><path d="M384.197 119.333 314.5 96.5001" stroke="#92D050" stroke-miterlimit="8" fill="none" fill-rule="evenodd"/><path d="M384.519 119.375 341.5 72.5001" stroke="#92D050" stroke-miterlimit="8" fill="none" fill-rule="evenodd"/><path d="M402.677 116.391 399.5 94.5001" stroke="#92D050" stroke-miterlimit="8" fill="none" fill-rule="evenodd"/><path d="M0 0 54.7858 56.0323" stroke="#92D050" stroke-miterlimit="8" fill="none" fill-rule="evenodd" transform="matrix(1 0 0 -1 402.5 116.532)"/><path d="M0 0 52.0115 26.1701" stroke="#92D050" stroke-miterlimit="8" fill="none" fill-rule="evenodd" transform="matrix(1 0 0 -1 417.5 127.67)"/><path d="M0 0 55.8548 4.2189" stroke="#92D050" stroke-miterlimit="8" fill="none" fill-rule="evenodd" transform="matrix(1 0 0 -1 419.5 145.719)"/><text font-family="Calibri,Calibri_MSFontService,sans-serif" font-weight="700" font-size="16" transform="translate(366.259 194)">Coverage<tspan font-size="24" x="-352.296" y="-175">US Healthcare </tspan><tspan font-size="24" x="-206.369" y="-175">at a glance</tspan><tspan font-style="italic" font-weight="400" font-size="14" x="-352.296" y="-155">(network diagram)</tspan></text></g></svg>